<mxfile host="app.diagrams.net" modified="2023-10-11T14:54:02.329Z" agent="Mozilla/5.0 (Windows NT 10.0; Win64; x64) AppleWebKit/537.36 (KHTML, like Gecko) Chrome/117.0.0.0 Safari/537.36" etag="5ILkkzpuTkowgb8yZkjW" version="22.0.4" type="device">
  <diagram name="Page-1" id="GXlrYVDK0Ub0vFR0oHgz">
    <mxGraphModel dx="1674" dy="790" grid="1" gridSize="10" guides="1" tooltips="1" connect="1" arrows="0" fold="1" page="0" pageScale="1" pageWidth="827" pageHeight="1169" math="0" shadow="0">
      <root>
        <mxCell id="0" />
        <mxCell id="1" parent="0" />
        <mxCell id="Nd9jvniVcSfhxIXPhPJu-1" value="DÃ©but" style="rounded=1;whiteSpace=wrap;html=1;" vertex="1" parent="1">
          <mxGeometry x="240" y="30" width="120" height="60" as="geometry" />
        </mxCell>
        <mxCell id="Nd9jvniVcSfhxIXPhPJu-16" value="" style="endArrow=none;html=1;rounded=1;entryX=0.5;entryY=1;entryDx=0;entryDy=0;exitX=0.5;exitY=0;exitDx=0;exitDy=0;" edge="1" parent="1" source="Nd9jvniVcSfhxIXPhPJu-36" target="Nd9jvniVcSfhxIXPhPJu-1">
          <mxGeometry width="50" height="50" relative="1" as="geometry">
            <mxPoint x="310" y="150" as="sourcePoint" />
            <mxPoint x="300" y="120" as="targetPoint" />
          </mxGeometry>
        </mxCell>
        <mxCell id="Nd9jvniVcSfhxIXPhPJu-36" value="&lt;div style=&quot;background-color: rgb(43, 43, 43); color: rgb(169, 183, 198); font-family: &amp;quot;JetBrains Mono&amp;quot;, monospace;&quot;&gt;&lt;span style=&quot;color:#cc7832;&quot;&gt;if &lt;/span&gt;(&lt;span style=&quot;color:#9876aa;&quot;&gt;P1point &lt;/span&gt;== &lt;span style=&quot;color:#9876aa;&quot;&gt;P2point &lt;/span&gt;&amp;amp;&amp;amp; &lt;span style=&quot;color:#9876aa;&quot;&gt;P1point &lt;/span&gt;&amp;lt; &lt;span style=&quot;color:#6897bb;&quot;&gt;4&lt;/span&gt;)&lt;br&gt;&lt;/div&gt;" style="rounded=1;whiteSpace=wrap;html=1;" vertex="1" parent="1">
          <mxGeometry x="240" y="130" width="120" height="60" as="geometry" />
        </mxCell>
        <mxCell id="Nd9jvniVcSfhxIXPhPJu-37" value="&lt;div style=&quot;background-color: rgb(43, 43, 43); color: rgb(169, 183, 198); font-family: &amp;quot;JetBrains Mono&amp;quot;, monospace;&quot;&gt;&lt;span style=&quot;color:#cc7832;&quot;&gt;if &lt;/span&gt;(&lt;span style=&quot;color:#9876aa;&quot;&gt;P1point&lt;/span&gt;==&lt;span style=&quot;color:#6897bb;&quot;&gt;0&lt;/span&gt;)&lt;br&gt;&lt;/div&gt;" style="rounded=1;whiteSpace=wrap;html=1;" vertex="1" parent="1">
          <mxGeometry x="240" y="240" width="120" height="60" as="geometry" />
        </mxCell>
        <mxCell id="Nd9jvniVcSfhxIXPhPJu-40" value="&lt;div style=&quot;background-color: rgb(43, 43, 43); color: rgb(169, 183, 198); font-family: &amp;quot;JetBrains Mono&amp;quot;, monospace;&quot;&gt;&lt;span style=&quot;color:#cc7832;&quot;&gt;if &lt;/span&gt;(&lt;span style=&quot;color:#9876aa;&quot;&gt;P1point&lt;/span&gt;==&lt;span style=&quot;color:#6897bb;&quot;&gt;1&lt;/span&gt;)&lt;br&gt;&lt;/div&gt;" style="rounded=1;whiteSpace=wrap;html=1;" vertex="1" parent="1">
          <mxGeometry x="240" y="460" width="120" height="60" as="geometry" />
        </mxCell>
        <mxCell id="Nd9jvniVcSfhxIXPhPJu-41" value="" style="endArrow=none;html=1;rounded=1;entryX=0.5;entryY=1;entryDx=0;entryDy=0;exitX=0.5;exitY=0;exitDx=0;exitDy=0;" edge="1" parent="1" source="Nd9jvniVcSfhxIXPhPJu-49" target="Nd9jvniVcSfhxIXPhPJu-37">
          <mxGeometry width="50" height="50" relative="1" as="geometry">
            <mxPoint x="350" y="320" as="sourcePoint" />
            <mxPoint x="310" y="210" as="targetPoint" />
          </mxGeometry>
        </mxCell>
        <mxCell id="Nd9jvniVcSfhxIXPhPJu-49" value="&lt;div style=&quot;background-color: rgb(43, 43, 43); color: rgb(169, 183, 198); font-family: &amp;quot;JetBrains Mono&amp;quot;, monospace;&quot;&gt;score = &quot;Love&quot;;&lt;span style=&quot;color:#cc7832;&quot;&gt;&lt;br&gt;&lt;/span&gt;&lt;/div&gt;" style="rounded=1;whiteSpace=wrap;html=1;" vertex="1" parent="1">
          <mxGeometry x="170" y="340" width="120" height="60" as="geometry" />
        </mxCell>
        <mxCell id="Nd9jvniVcSfhxIXPhPJu-51" value="" style="endArrow=none;html=1;rounded=1;entryX=0.5;entryY=1;entryDx=0;entryDy=0;exitX=0.5;exitY=0;exitDx=0;exitDy=0;" edge="1" parent="1" source="Nd9jvniVcSfhxIXPhPJu-37" target="Nd9jvniVcSfhxIXPhPJu-36">
          <mxGeometry width="50" height="50" relative="1" as="geometry">
            <mxPoint x="440" y="260" as="sourcePoint" />
            <mxPoint x="180" y="160" as="targetPoint" />
          </mxGeometry>
        </mxCell>
        <mxCell id="Nd9jvniVcSfhxIXPhPJu-53" value="" style="endArrow=none;html=1;rounded=1;entryX=0.5;entryY=0;entryDx=0;entryDy=0;exitX=0.5;exitY=1;exitDx=0;exitDy=0;" edge="1" parent="1" source="Nd9jvniVcSfhxIXPhPJu-49" target="Nd9jvniVcSfhxIXPhPJu-40">
          <mxGeometry width="50" height="50" relative="1" as="geometry">
            <mxPoint x="240" y="350" as="sourcePoint" />
            <mxPoint x="310" y="310" as="targetPoint" />
          </mxGeometry>
        </mxCell>
        <mxCell id="Nd9jvniVcSfhxIXPhPJu-54" value="" style="endArrow=none;html=1;rounded=1;entryX=1;entryY=0.5;entryDx=0;entryDy=0;" edge="1" parent="1">
          <mxGeometry width="50" height="50" relative="1" as="geometry">
            <mxPoint x="440" y="380" as="sourcePoint" />
            <mxPoint x="360" y="280" as="targetPoint" />
          </mxGeometry>
        </mxCell>
        <mxCell id="Nd9jvniVcSfhxIXPhPJu-55" value="" style="endArrow=none;html=1;rounded=1;entryX=1;entryY=0.5;entryDx=0;entryDy=0;" edge="1" parent="1">
          <mxGeometry width="50" height="50" relative="1" as="geometry">
            <mxPoint x="440" y="380" as="sourcePoint" />
            <mxPoint x="360" y="480" as="targetPoint" />
          </mxGeometry>
        </mxCell>
        <mxCell id="Nd9jvniVcSfhxIXPhPJu-64" value="&lt;div style=&quot;background-color: rgb(43, 43, 43); font-family: &amp;quot;JetBrains Mono&amp;quot;, monospace;&quot;&gt;&lt;span style=&quot;color: rgb(169, 183, 198);&quot;&gt;&lt;span style=&quot;color:#cc7832;&quot;&gt;if &lt;/span&gt;(&lt;span style=&quot;color:#9876aa;&quot;&gt;P1point&lt;/span&gt;==&lt;/span&gt;&lt;font color=&quot;#6897bb&quot;&gt;2&lt;/font&gt;&lt;font color=&quot;#a9b7c6&quot;&gt;)&lt;/font&gt;&lt;br&gt;&lt;/div&gt;" style="rounded=1;whiteSpace=wrap;html=1;" vertex="1" parent="1">
          <mxGeometry x="240" y="670" width="120" height="60" as="geometry" />
        </mxCell>
        <mxCell id="Nd9jvniVcSfhxIXPhPJu-65" value="" style="endArrow=none;html=1;rounded=1;entryX=0.5;entryY=1;entryDx=0;entryDy=0;exitX=0.5;exitY=0;exitDx=0;exitDy=0;" edge="1" parent="1" source="Nd9jvniVcSfhxIXPhPJu-66">
          <mxGeometry width="50" height="50" relative="1" as="geometry">
            <mxPoint x="350" y="540" as="sourcePoint" />
            <mxPoint x="300" y="520" as="targetPoint" />
          </mxGeometry>
        </mxCell>
        <mxCell id="Nd9jvniVcSfhxIXPhPJu-66" value="&lt;div style=&quot;background-color: rgb(43, 43, 43); color: rgb(169, 183, 198); font-family: &amp;quot;JetBrains Mono&amp;quot;, monospace;&quot;&gt;score = &quot;Fifteen&quot;&lt;span style=&quot;color:#cc7832;&quot;&gt;;&lt;br&gt;&lt;/span&gt;&lt;/div&gt;" style="rounded=1;whiteSpace=wrap;html=1;" vertex="1" parent="1">
          <mxGeometry x="170" y="560" width="120" height="60" as="geometry" />
        </mxCell>
        <mxCell id="Nd9jvniVcSfhxIXPhPJu-67" value="" style="endArrow=none;html=1;rounded=1;entryX=0.5;entryY=0;entryDx=0;entryDy=0;exitX=0.5;exitY=1;exitDx=0;exitDy=0;" edge="1" parent="1" source="Nd9jvniVcSfhxIXPhPJu-66" target="Nd9jvniVcSfhxIXPhPJu-64">
          <mxGeometry width="50" height="50" relative="1" as="geometry">
            <mxPoint x="240" y="570" as="sourcePoint" />
            <mxPoint x="310" y="530" as="targetPoint" />
          </mxGeometry>
        </mxCell>
        <mxCell id="Nd9jvniVcSfhxIXPhPJu-68" value="" style="endArrow=none;html=1;rounded=1;entryX=1;entryY=0.5;entryDx=0;entryDy=0;" edge="1" parent="1">
          <mxGeometry width="50" height="50" relative="1" as="geometry">
            <mxPoint x="440" y="600" as="sourcePoint" />
            <mxPoint x="360" y="500" as="targetPoint" />
          </mxGeometry>
        </mxCell>
        <mxCell id="Nd9jvniVcSfhxIXPhPJu-69" value="" style="endArrow=none;html=1;rounded=1;entryX=1;entryY=0.5;entryDx=0;entryDy=0;" edge="1" parent="1">
          <mxGeometry width="50" height="50" relative="1" as="geometry">
            <mxPoint x="440" y="600" as="sourcePoint" />
            <mxPoint x="360" y="700" as="targetPoint" />
          </mxGeometry>
        </mxCell>
        <mxCell id="Nd9jvniVcSfhxIXPhPJu-70" value="" style="endArrow=none;html=1;rounded=1;entryX=0.5;entryY=1;entryDx=0;entryDy=0;exitX=0.5;exitY=0;exitDx=0;exitDy=0;" edge="1" parent="1" source="Nd9jvniVcSfhxIXPhPJu-71">
          <mxGeometry width="50" height="50" relative="1" as="geometry">
            <mxPoint x="360" y="750" as="sourcePoint" />
            <mxPoint x="310" y="730" as="targetPoint" />
          </mxGeometry>
        </mxCell>
        <mxCell id="Nd9jvniVcSfhxIXPhPJu-71" value="&lt;div style=&quot;background-color: rgb(43, 43, 43); color: rgb(169, 183, 198); font-family: &amp;quot;JetBrains Mono&amp;quot;, monospace;&quot;&gt;&lt;div style=&quot;&quot;&gt;score = &quot;Thirty&quot;&lt;span style=&quot;color:#cc7832;&quot;&gt;;&lt;br&gt;&lt;/span&gt;&lt;/div&gt;&lt;/div&gt;" style="rounded=1;whiteSpace=wrap;html=1;" vertex="1" parent="1">
          <mxGeometry x="180" y="770" width="120" height="60" as="geometry" />
        </mxCell>
        <mxCell id="Nd9jvniVcSfhxIXPhPJu-72" value="" style="endArrow=none;html=1;rounded=1;entryX=0.5;entryY=0;entryDx=0;entryDy=0;exitX=0.5;exitY=1;exitDx=0;exitDy=0;" edge="1" parent="1" source="Nd9jvniVcSfhxIXPhPJu-71" target="Nd9jvniVcSfhxIXPhPJu-75">
          <mxGeometry width="50" height="50" relative="1" as="geometry">
            <mxPoint x="250" y="780" as="sourcePoint" />
            <mxPoint x="310" y="880" as="targetPoint" />
          </mxGeometry>
        </mxCell>
        <mxCell id="Nd9jvniVcSfhxIXPhPJu-73" value="" style="endArrow=none;html=1;rounded=1;entryX=1;entryY=0.5;entryDx=0;entryDy=0;" edge="1" parent="1" target="Nd9jvniVcSfhxIXPhPJu-64">
          <mxGeometry width="50" height="50" relative="1" as="geometry">
            <mxPoint x="450" y="810" as="sourcePoint" />
            <mxPoint x="370" y="710" as="targetPoint" />
          </mxGeometry>
        </mxCell>
        <mxCell id="Nd9jvniVcSfhxIXPhPJu-74" value="" style="endArrow=none;html=1;rounded=1;entryX=1;entryY=0.25;entryDx=0;entryDy=0;" edge="1" parent="1" target="Nd9jvniVcSfhxIXPhPJu-75">
          <mxGeometry width="50" height="50" relative="1" as="geometry">
            <mxPoint x="450" y="810" as="sourcePoint" />
            <mxPoint x="370" y="910" as="targetPoint" />
          </mxGeometry>
        </mxCell>
        <mxCell id="Nd9jvniVcSfhxIXPhPJu-75" value="&lt;div style=&quot;background-color: rgb(43, 43, 43); color: rgb(169, 183, 198); font-family: &amp;quot;JetBrains Mono&amp;quot;, monospace;&quot;&gt;score += &quot;-All&quot;&lt;span style=&quot;color:#cc7832;&quot;&gt;;&lt;br&gt;&lt;/span&gt;&lt;/div&gt;" style="rounded=1;whiteSpace=wrap;html=1;" vertex="1" parent="1">
          <mxGeometry x="180" y="880" width="120" height="60" as="geometry" />
        </mxCell>
        <mxCell id="Nd9jvniVcSfhxIXPhPJu-76" value="&lt;div style=&quot;background-color: rgb(43, 43, 43); color: rgb(169, 183, 198); font-family: &amp;quot;JetBrains Mono&amp;quot;, monospace;&quot;&gt;if (&lt;span style=&quot;color:#9876aa;&quot;&gt;P1point&lt;/span&gt;==&lt;span style=&quot;color:#9876aa;&quot;&gt;P2point &lt;/span&gt;&amp;amp;&amp;amp; &lt;span style=&quot;color:#9876aa;&quot;&gt;P1point&lt;/span&gt;&amp;gt;=&lt;span style=&quot;color:#6897bb;&quot;&gt;3&lt;/span&gt;)&lt;br&gt;&lt;/div&gt;" style="rounded=1;whiteSpace=wrap;html=1;" vertex="1" parent="1">
          <mxGeometry x="240" y="980" width="120" height="60" as="geometry" />
        </mxCell>
        <mxCell id="Nd9jvniVcSfhxIXPhPJu-77" value="" style="endArrow=none;html=1;rounded=1;entryX=0.5;entryY=1;entryDx=0;entryDy=0;exitX=0.5;exitY=0;exitDx=0;exitDy=0;" edge="1" parent="1" source="Nd9jvniVcSfhxIXPhPJu-76" target="Nd9jvniVcSfhxIXPhPJu-75">
          <mxGeometry width="50" height="50" relative="1" as="geometry">
            <mxPoint x="250" y="840" as="sourcePoint" />
            <mxPoint x="250" y="890" as="targetPoint" />
          </mxGeometry>
        </mxCell>
        <mxCell id="Nd9jvniVcSfhxIXPhPJu-78" value="" style="endArrow=none;html=1;rounded=1;entryX=1;entryY=0.5;entryDx=0;entryDy=0;" edge="1" parent="1" target="Nd9jvniVcSfhxIXPhPJu-36">
          <mxGeometry width="50" height="50" relative="1" as="geometry">
            <mxPoint x="660" y="630" as="sourcePoint" />
            <mxPoint x="370" y="290" as="targetPoint" />
          </mxGeometry>
        </mxCell>
        <mxCell id="Nd9jvniVcSfhxIXPhPJu-79" value="" style="endArrow=none;html=1;rounded=1;exitX=1;exitY=0.25;exitDx=0;exitDy=0;" edge="1" parent="1" source="Nd9jvniVcSfhxIXPhPJu-76">
          <mxGeometry width="50" height="50" relative="1" as="geometry">
            <mxPoint x="650" y="740" as="sourcePoint" />
            <mxPoint x="660" y="630" as="targetPoint" />
          </mxGeometry>
        </mxCell>
        <mxCell id="Nd9jvniVcSfhxIXPhPJu-80" value="&lt;div style=&quot;background-color: rgb(43, 43, 43); color: rgb(169, 183, 198); font-family: &amp;quot;JetBrains Mono&amp;quot;, monospace;&quot;&gt;score += &quot;-All&quot;&lt;span style=&quot;color:#cc7832;&quot;&gt;;&lt;br&gt;&lt;/span&gt;&lt;/div&gt;" style="rounded=1;whiteSpace=wrap;html=1;" vertex="1" parent="1">
          <mxGeometry x="180" y="1070" width="120" height="60" as="geometry" />
        </mxCell>
        <mxCell id="Nd9jvniVcSfhxIXPhPJu-81" value="" style="endArrow=none;html=1;rounded=1;entryX=0.5;entryY=1;entryDx=0;entryDy=0;exitX=0.5;exitY=0;exitDx=0;exitDy=0;" edge="1" parent="1" source="Nd9jvniVcSfhxIXPhPJu-80" target="Nd9jvniVcSfhxIXPhPJu-76">
          <mxGeometry width="50" height="50" relative="1" as="geometry">
            <mxPoint x="310" y="990" as="sourcePoint" />
            <mxPoint x="250" y="950" as="targetPoint" />
          </mxGeometry>
        </mxCell>
        <mxCell id="Nd9jvniVcSfhxIXPhPJu-82" value="&lt;div style=&quot;background-color: rgb(43, 43, 43); color: rgb(169, 183, 198); font-family: &amp;quot;JetBrains Mono&amp;quot;, monospace;&quot;&gt;&lt;div style=&quot;&quot;&gt;if (&lt;span style=&quot;color:#9876aa;&quot;&gt;P1point &lt;/span&gt;&amp;gt; &lt;span style=&quot;color:#6897bb;&quot;&gt;0 &lt;/span&gt;&amp;amp;&amp;amp; &lt;span style=&quot;color:#9876aa;&quot;&gt;P2point&lt;/span&gt;==&lt;span style=&quot;color:#6897bb;&quot;&gt;0&lt;/span&gt;)&lt;br&gt;&lt;/div&gt;&lt;/div&gt;" style="rounded=1;whiteSpace=wrap;html=1;" vertex="1" parent="1">
          <mxGeometry x="240" y="1170" width="120" height="60" as="geometry" />
        </mxCell>
        <mxCell id="Nd9jvniVcSfhxIXPhPJu-83" value="" style="endArrow=none;html=1;rounded=1;entryX=0.5;entryY=0;entryDx=0;entryDy=0;exitX=0.5;exitY=1;exitDx=0;exitDy=0;" edge="1" parent="1" source="Nd9jvniVcSfhxIXPhPJu-80" target="Nd9jvniVcSfhxIXPhPJu-82">
          <mxGeometry width="50" height="50" relative="1" as="geometry">
            <mxPoint x="250" y="1080" as="sourcePoint" />
            <mxPoint x="310" y="1050" as="targetPoint" />
          </mxGeometry>
        </mxCell>
        <mxCell id="Nd9jvniVcSfhxIXPhPJu-84" value="" style="endArrow=none;html=1;rounded=1;entryX=1;entryY=0.5;entryDx=0;entryDy=0;" edge="1" parent="1" target="Nd9jvniVcSfhxIXPhPJu-76">
          <mxGeometry width="50" height="50" relative="1" as="geometry">
            <mxPoint x="420" y="1100" as="sourcePoint" />
            <mxPoint x="370" y="710" as="targetPoint" />
          </mxGeometry>
        </mxCell>
        <mxCell id="Nd9jvniVcSfhxIXPhPJu-85" value="" style="endArrow=none;html=1;rounded=1;exitX=1;exitY=0.25;exitDx=0;exitDy=0;" edge="1" parent="1" source="Nd9jvniVcSfhxIXPhPJu-82">
          <mxGeometry width="50" height="50" relative="1" as="geometry">
            <mxPoint x="430" y="1110" as="sourcePoint" />
            <mxPoint x="420" y="1100" as="targetPoint" />
          </mxGeometry>
        </mxCell>
        <mxCell id="Nd9jvniVcSfhxIXPhPJu-86" value="&lt;div style=&quot;background-color: rgb(43, 43, 43); color: rgb(169, 183, 198); font-family: &amp;quot;JetBrains Mono&amp;quot;, monospace;&quot;&gt;&lt;div style=&quot;&quot;&gt;if (&lt;span style=&quot;color:#9876aa;&quot;&gt;P1point&lt;/span&gt;==&lt;span style=&quot;color:#6897bb;&quot;&gt;1&lt;/span&gt;)&lt;br&gt;&lt;/div&gt;&lt;/div&gt;" style="rounded=1;whiteSpace=wrap;html=1;" vertex="1" parent="1">
          <mxGeometry x="240" y="1280" width="120" height="60" as="geometry" />
        </mxCell>
        <mxCell id="Nd9jvniVcSfhxIXPhPJu-87" value="&lt;div style=&quot;background-color: rgb(43, 43, 43); color: rgb(169, 183, 198); font-family: &amp;quot;JetBrains Mono&amp;quot;, monospace;&quot;&gt;&lt;div style=&quot;&quot;&gt;if (&lt;span style=&quot;color:#9876aa;&quot;&gt;P1point&lt;/span&gt;==&lt;span style=&quot;color:#6897bb;&quot;&gt;2&lt;/span&gt;)&lt;br&gt;&lt;/div&gt;&lt;/div&gt;" style="rounded=1;whiteSpace=wrap;html=1;" vertex="1" parent="1">
          <mxGeometry x="240" y="1500" width="120" height="60" as="geometry" />
        </mxCell>
        <mxCell id="Nd9jvniVcSfhxIXPhPJu-88" value="" style="endArrow=none;html=1;rounded=1;entryX=0.5;entryY=1;entryDx=0;entryDy=0;exitX=0.5;exitY=0;exitDx=0;exitDy=0;" edge="1" parent="1" source="Nd9jvniVcSfhxIXPhPJu-89" target="Nd9jvniVcSfhxIXPhPJu-86">
          <mxGeometry width="50" height="50" relative="1" as="geometry">
            <mxPoint x="350" y="1360" as="sourcePoint" />
            <mxPoint x="310" y="1250" as="targetPoint" />
          </mxGeometry>
        </mxCell>
        <mxCell id="Nd9jvniVcSfhxIXPhPJu-89" value="&lt;div style=&quot;background-color: rgb(43, 43, 43); color: rgb(169, 183, 198); font-family: &amp;quot;JetBrains Mono&amp;quot;, monospace;&quot;&gt;&lt;div style=&quot;&quot;&gt;P1res = &lt;span style=&quot;color:#6a8759;&quot;&gt;&quot;Fifteen&quot;&lt;/span&gt;&lt;span style=&quot;color:#cc7832;&quot;&gt;;&lt;br&gt;&lt;/span&gt;&lt;/div&gt;&lt;/div&gt;" style="rounded=1;whiteSpace=wrap;html=1;" vertex="1" parent="1">
          <mxGeometry x="170" y="1380" width="120" height="60" as="geometry" />
        </mxCell>
        <mxCell id="Nd9jvniVcSfhxIXPhPJu-90" value="" style="endArrow=none;html=1;rounded=1;entryX=0.5;entryY=0;entryDx=0;entryDy=0;exitX=0.5;exitY=1;exitDx=0;exitDy=0;" edge="1" parent="1" source="Nd9jvniVcSfhxIXPhPJu-89" target="Nd9jvniVcSfhxIXPhPJu-87">
          <mxGeometry width="50" height="50" relative="1" as="geometry">
            <mxPoint x="240" y="1390" as="sourcePoint" />
            <mxPoint x="310" y="1350" as="targetPoint" />
          </mxGeometry>
        </mxCell>
        <mxCell id="Nd9jvniVcSfhxIXPhPJu-91" value="" style="endArrow=none;html=1;rounded=1;entryX=1;entryY=0.5;entryDx=0;entryDy=0;" edge="1" parent="1">
          <mxGeometry width="50" height="50" relative="1" as="geometry">
            <mxPoint x="440" y="1420" as="sourcePoint" />
            <mxPoint x="360" y="1320" as="targetPoint" />
          </mxGeometry>
        </mxCell>
        <mxCell id="Nd9jvniVcSfhxIXPhPJu-92" value="" style="endArrow=none;html=1;rounded=1;entryX=1;entryY=0.5;entryDx=0;entryDy=0;" edge="1" parent="1">
          <mxGeometry width="50" height="50" relative="1" as="geometry">
            <mxPoint x="440" y="1420" as="sourcePoint" />
            <mxPoint x="360" y="1520" as="targetPoint" />
          </mxGeometry>
        </mxCell>
        <mxCell id="Nd9jvniVcSfhxIXPhPJu-93" value="&lt;div style=&quot;background-color: rgb(43, 43, 43); font-family: &amp;quot;JetBrains Mono&amp;quot;, monospace;&quot;&gt;&lt;div style=&quot;color: rgb(169, 183, 198);&quot;&gt;if (&lt;span style=&quot;color:#9876aa;&quot;&gt;P1point&lt;/span&gt;==&lt;span style=&quot;color:#6897bb;&quot;&gt;3&lt;/span&gt;)&lt;br&gt;&lt;/div&gt;&lt;/div&gt;" style="rounded=1;whiteSpace=wrap;html=1;" vertex="1" parent="1">
          <mxGeometry x="240" y="1710" width="120" height="60" as="geometry" />
        </mxCell>
        <mxCell id="Nd9jvniVcSfhxIXPhPJu-94" value="" style="endArrow=none;html=1;rounded=1;entryX=0.5;entryY=1;entryDx=0;entryDy=0;exitX=0.5;exitY=0;exitDx=0;exitDy=0;" edge="1" parent="1" source="Nd9jvniVcSfhxIXPhPJu-95">
          <mxGeometry width="50" height="50" relative="1" as="geometry">
            <mxPoint x="350" y="1580" as="sourcePoint" />
            <mxPoint x="300" y="1560" as="targetPoint" />
          </mxGeometry>
        </mxCell>
        <mxCell id="Nd9jvniVcSfhxIXPhPJu-95" value="&lt;div style=&quot;background-color: rgb(43, 43, 43); color: rgb(169, 183, 198); font-family: &amp;quot;JetBrains Mono&amp;quot;, monospace;&quot;&gt;&lt;div style=&quot;&quot;&gt;P1res = &lt;span style=&quot;color:#6a8759;&quot;&gt;&quot;Thirty&quot;&lt;/span&gt;&lt;span style=&quot;color:#cc7832;&quot;&gt;;&lt;br&gt;&lt;/span&gt;&lt;/div&gt;&lt;/div&gt;" style="rounded=1;whiteSpace=wrap;html=1;" vertex="1" parent="1">
          <mxGeometry x="170" y="1600" width="120" height="60" as="geometry" />
        </mxCell>
        <mxCell id="Nd9jvniVcSfhxIXPhPJu-96" value="" style="endArrow=none;html=1;rounded=1;entryX=0.5;entryY=0;entryDx=0;entryDy=0;exitX=0.5;exitY=1;exitDx=0;exitDy=0;" edge="1" parent="1" source="Nd9jvniVcSfhxIXPhPJu-95" target="Nd9jvniVcSfhxIXPhPJu-93">
          <mxGeometry width="50" height="50" relative="1" as="geometry">
            <mxPoint x="240" y="1610" as="sourcePoint" />
            <mxPoint x="310" y="1570" as="targetPoint" />
          </mxGeometry>
        </mxCell>
        <mxCell id="Nd9jvniVcSfhxIXPhPJu-97" value="" style="endArrow=none;html=1;rounded=1;entryX=1;entryY=0.5;entryDx=0;entryDy=0;" edge="1" parent="1">
          <mxGeometry width="50" height="50" relative="1" as="geometry">
            <mxPoint x="440" y="1640" as="sourcePoint" />
            <mxPoint x="360" y="1540" as="targetPoint" />
          </mxGeometry>
        </mxCell>
        <mxCell id="Nd9jvniVcSfhxIXPhPJu-98" value="" style="endArrow=none;html=1;rounded=1;entryX=1;entryY=0.5;entryDx=0;entryDy=0;" edge="1" parent="1">
          <mxGeometry width="50" height="50" relative="1" as="geometry">
            <mxPoint x="440" y="1640" as="sourcePoint" />
            <mxPoint x="360" y="1740" as="targetPoint" />
          </mxGeometry>
        </mxCell>
        <mxCell id="Nd9jvniVcSfhxIXPhPJu-99" value="" style="endArrow=none;html=1;rounded=1;entryX=0.5;entryY=1;entryDx=0;entryDy=0;exitX=0.5;exitY=0;exitDx=0;exitDy=0;" edge="1" parent="1" source="Nd9jvniVcSfhxIXPhPJu-100">
          <mxGeometry width="50" height="50" relative="1" as="geometry">
            <mxPoint x="360" y="1790" as="sourcePoint" />
            <mxPoint x="310" y="1770" as="targetPoint" />
          </mxGeometry>
        </mxCell>
        <mxCell id="Nd9jvniVcSfhxIXPhPJu-100" value="&lt;div style=&quot;background-color: rgb(43, 43, 43); color: rgb(169, 183, 198); font-family: &amp;quot;JetBrains Mono&amp;quot;, monospace;&quot;&gt;&lt;div style=&quot;&quot;&gt;&lt;div style=&quot;&quot;&gt;P1res = &lt;span style=&quot;color:#6a8759;&quot;&gt;&quot;Forty&quot;&lt;/span&gt;&lt;span style=&quot;color:#cc7832;&quot;&gt;;&lt;br&gt;&lt;/span&gt;&lt;/div&gt;&lt;/div&gt;&lt;/div&gt;" style="rounded=1;whiteSpace=wrap;html=1;" vertex="1" parent="1">
          <mxGeometry x="180" y="1810" width="120" height="60" as="geometry" />
        </mxCell>
        <mxCell id="Nd9jvniVcSfhxIXPhPJu-101" value="" style="endArrow=none;html=1;rounded=1;entryX=0.5;entryY=0;entryDx=0;entryDy=0;exitX=0.5;exitY=1;exitDx=0;exitDy=0;" edge="1" parent="1" source="Nd9jvniVcSfhxIXPhPJu-100" target="Nd9jvniVcSfhxIXPhPJu-104">
          <mxGeometry width="50" height="50" relative="1" as="geometry">
            <mxPoint x="250" y="1820" as="sourcePoint" />
            <mxPoint x="310" y="1920" as="targetPoint" />
          </mxGeometry>
        </mxCell>
        <mxCell id="Nd9jvniVcSfhxIXPhPJu-102" value="" style="endArrow=none;html=1;rounded=1;entryX=1;entryY=0.5;entryDx=0;entryDy=0;" edge="1" parent="1" target="Nd9jvniVcSfhxIXPhPJu-93">
          <mxGeometry width="50" height="50" relative="1" as="geometry">
            <mxPoint x="450" y="1850" as="sourcePoint" />
            <mxPoint x="370" y="1750" as="targetPoint" />
          </mxGeometry>
        </mxCell>
        <mxCell id="Nd9jvniVcSfhxIXPhPJu-103" value="" style="endArrow=none;html=1;rounded=1;entryX=1;entryY=0.25;entryDx=0;entryDy=0;" edge="1" parent="1" target="Nd9jvniVcSfhxIXPhPJu-104">
          <mxGeometry width="50" height="50" relative="1" as="geometry">
            <mxPoint x="450" y="1850" as="sourcePoint" />
            <mxPoint x="370" y="1950" as="targetPoint" />
          </mxGeometry>
        </mxCell>
        <mxCell id="Nd9jvniVcSfhxIXPhPJu-104" value="&lt;div style=&quot;background-color: rgb(43, 43, 43); color: rgb(169, 183, 198); font-family: &amp;quot;JetBrains Mono&amp;quot;, monospace;&quot;&gt;&lt;div style=&quot;&quot;&gt;P2res = &lt;span style=&quot;color:#6a8759;&quot;&gt;&quot;Love&quot;&lt;/span&gt;&lt;span style=&quot;color:#cc7832;&quot;&gt;;&lt;br&gt;&lt;/span&gt;score = &lt;span style=&quot;color:#9876aa;&quot;&gt;P1res &lt;/span&gt;+ &lt;span style=&quot;color:#6a8759;&quot;&gt;&quot;-&quot; &lt;/span&gt;+ &lt;span style=&quot;color:#9876aa;&quot;&gt;P2res&lt;/span&gt;&lt;span style=&quot;color:#cc7832;&quot;&gt;;&lt;/span&gt;&lt;/div&gt;&lt;/div&gt;" style="rounded=1;whiteSpace=wrap;html=1;" vertex="1" parent="1">
          <mxGeometry x="180" y="1920" width="120" height="60" as="geometry" />
        </mxCell>
        <mxCell id="Nd9jvniVcSfhxIXPhPJu-105" value="" style="endArrow=none;html=1;rounded=1;entryX=1;entryY=0.5;entryDx=0;entryDy=0;" edge="1" parent="1" target="Nd9jvniVcSfhxIXPhPJu-82">
          <mxGeometry width="50" height="50" relative="1" as="geometry">
            <mxPoint x="660" y="1670" as="sourcePoint" />
            <mxPoint x="370" y="1330" as="targetPoint" />
          </mxGeometry>
        </mxCell>
        <mxCell id="Nd9jvniVcSfhxIXPhPJu-106" value="" style="endArrow=none;html=1;rounded=1;entryX=0.5;entryY=1;entryDx=0;entryDy=0;exitX=0.5;exitY=0;exitDx=0;exitDy=0;" edge="1" parent="1" source="Nd9jvniVcSfhxIXPhPJu-86" target="Nd9jvniVcSfhxIXPhPJu-82">
          <mxGeometry width="50" height="50" relative="1" as="geometry">
            <mxPoint x="240" y="1390" as="sourcePoint" />
            <mxPoint x="310" y="1350" as="targetPoint" />
          </mxGeometry>
        </mxCell>
        <mxCell id="Nd9jvniVcSfhxIXPhPJu-107" value="&lt;div style=&quot;background-color: rgb(43, 43, 43); color: rgb(169, 183, 198); font-family: &amp;quot;JetBrains Mono&amp;quot;, monospace;&quot;&gt;&lt;div style=&quot;&quot;&gt;&lt;div style=&quot;&quot;&gt;if (&lt;span style=&quot;color:#9876aa;&quot;&gt;P2point &lt;/span&gt;&amp;gt; &lt;span style=&quot;color:#6897bb;&quot;&gt;0 &lt;/span&gt;&amp;amp;&amp;amp; &lt;span style=&quot;color:#9876aa;&quot;&gt;P1point&lt;/span&gt;==&lt;span style=&quot;color:#6897bb;&quot;&gt;0&lt;/span&gt;)&lt;br&gt;&lt;/div&gt;&lt;/div&gt;&lt;/div&gt;" style="rounded=1;whiteSpace=wrap;html=1;" vertex="1" parent="1">
          <mxGeometry x="240" y="2020" width="120" height="60" as="geometry" />
        </mxCell>
        <mxCell id="Nd9jvniVcSfhxIXPhPJu-108" value="&lt;div style=&quot;background-color: rgb(43, 43, 43); color: rgb(169, 183, 198); font-family: &amp;quot;JetBrains Mono&amp;quot;, monospace;&quot;&gt;&lt;div style=&quot;&quot;&gt;&lt;div style=&quot;&quot;&gt;if (&lt;span style=&quot;color:#9876aa;&quot;&gt;P2point&lt;/span&gt;==&lt;span style=&quot;color:#6897bb;&quot;&gt;1&lt;/span&gt;)&lt;br&gt;&lt;/div&gt;&lt;/div&gt;&lt;/div&gt;" style="rounded=1;whiteSpace=wrap;html=1;" vertex="1" parent="1">
          <mxGeometry x="240" y="2130" width="120" height="60" as="geometry" />
        </mxCell>
        <mxCell id="Nd9jvniVcSfhxIXPhPJu-109" value="&lt;div style=&quot;background-color: rgb(43, 43, 43); color: rgb(169, 183, 198); font-family: &amp;quot;JetBrains Mono&amp;quot;, monospace;&quot;&gt;&lt;div style=&quot;&quot;&gt;&lt;div style=&quot;&quot;&gt;if (&lt;span style=&quot;color:#9876aa;&quot;&gt;P2point&lt;/span&gt;==&lt;span style=&quot;color:#6897bb;&quot;&gt;2&lt;/span&gt;)&lt;br&gt;&lt;/div&gt;&lt;/div&gt;&lt;/div&gt;" style="rounded=1;whiteSpace=wrap;html=1;" vertex="1" parent="1">
          <mxGeometry x="240" y="2350" width="120" height="60" as="geometry" />
        </mxCell>
        <mxCell id="Nd9jvniVcSfhxIXPhPJu-110" value="" style="endArrow=none;html=1;rounded=1;entryX=0.5;entryY=1;entryDx=0;entryDy=0;exitX=0.5;exitY=0;exitDx=0;exitDy=0;" edge="1" parent="1" source="Nd9jvniVcSfhxIXPhPJu-111" target="Nd9jvniVcSfhxIXPhPJu-108">
          <mxGeometry width="50" height="50" relative="1" as="geometry">
            <mxPoint x="350" y="2210" as="sourcePoint" />
            <mxPoint x="310" y="2100" as="targetPoint" />
          </mxGeometry>
        </mxCell>
        <mxCell id="Nd9jvniVcSfhxIXPhPJu-111" value="&lt;div style=&quot;background-color: rgb(43, 43, 43); color: rgb(169, 183, 198); font-family: &amp;quot;JetBrains Mono&amp;quot;, monospace;&quot;&gt;&lt;div style=&quot;&quot;&gt;&lt;div style=&quot;&quot;&gt;P2res = &lt;span style=&quot;color:#6a8759;&quot;&gt;&quot;Fifteen&quot;&lt;/span&gt;&lt;span style=&quot;color:#cc7832;&quot;&gt;;&lt;br&gt;&lt;/span&gt;&lt;/div&gt;&lt;/div&gt;&lt;/div&gt;" style="rounded=1;whiteSpace=wrap;html=1;" vertex="1" parent="1">
          <mxGeometry x="170" y="2230" width="120" height="60" as="geometry" />
        </mxCell>
        <mxCell id="Nd9jvniVcSfhxIXPhPJu-112" value="" style="endArrow=none;html=1;rounded=1;entryX=0.5;entryY=0;entryDx=0;entryDy=0;exitX=0.5;exitY=1;exitDx=0;exitDy=0;" edge="1" parent="1" source="Nd9jvniVcSfhxIXPhPJu-111" target="Nd9jvniVcSfhxIXPhPJu-109">
          <mxGeometry width="50" height="50" relative="1" as="geometry">
            <mxPoint x="240" y="2240" as="sourcePoint" />
            <mxPoint x="310" y="2200" as="targetPoint" />
          </mxGeometry>
        </mxCell>
        <mxCell id="Nd9jvniVcSfhxIXPhPJu-113" value="" style="endArrow=none;html=1;rounded=1;entryX=1;entryY=0.5;entryDx=0;entryDy=0;" edge="1" parent="1">
          <mxGeometry width="50" height="50" relative="1" as="geometry">
            <mxPoint x="440" y="2270" as="sourcePoint" />
            <mxPoint x="360" y="2170" as="targetPoint" />
          </mxGeometry>
        </mxCell>
        <mxCell id="Nd9jvniVcSfhxIXPhPJu-114" value="" style="endArrow=none;html=1;rounded=1;entryX=1;entryY=0.5;entryDx=0;entryDy=0;" edge="1" parent="1">
          <mxGeometry width="50" height="50" relative="1" as="geometry">
            <mxPoint x="440" y="2270" as="sourcePoint" />
            <mxPoint x="360" y="2370" as="targetPoint" />
          </mxGeometry>
        </mxCell>
        <mxCell id="Nd9jvniVcSfhxIXPhPJu-115" value="&lt;div style=&quot;background-color: rgb(43, 43, 43); font-family: &amp;quot;JetBrains Mono&amp;quot;, monospace;&quot;&gt;&lt;div style=&quot;color: rgb(169, 183, 198);&quot;&gt;&lt;div style=&quot;&quot;&gt;if (&lt;span style=&quot;color:#9876aa;&quot;&gt;P2point&lt;/span&gt;==&lt;span style=&quot;color:#6897bb;&quot;&gt;3&lt;/span&gt;)&lt;br&gt;&lt;/div&gt;&lt;/div&gt;&lt;/div&gt;" style="rounded=1;whiteSpace=wrap;html=1;" vertex="1" parent="1">
          <mxGeometry x="240" y="2560" width="120" height="60" as="geometry" />
        </mxCell>
        <mxCell id="Nd9jvniVcSfhxIXPhPJu-116" value="" style="endArrow=none;html=1;rounded=1;entryX=0.5;entryY=1;entryDx=0;entryDy=0;exitX=0.5;exitY=0;exitDx=0;exitDy=0;" edge="1" parent="1" source="Nd9jvniVcSfhxIXPhPJu-117">
          <mxGeometry width="50" height="50" relative="1" as="geometry">
            <mxPoint x="350" y="2430" as="sourcePoint" />
            <mxPoint x="300" y="2410" as="targetPoint" />
          </mxGeometry>
        </mxCell>
        <mxCell id="Nd9jvniVcSfhxIXPhPJu-117" value="&lt;div style=&quot;background-color: rgb(43, 43, 43); color: rgb(169, 183, 198); font-family: &amp;quot;JetBrains Mono&amp;quot;, monospace;&quot;&gt;&lt;div style=&quot;&quot;&gt;&lt;div style=&quot;&quot;&gt;P2res = &lt;span style=&quot;color:#6a8759;&quot;&gt;&quot;Thirty&quot;&lt;/span&gt;&lt;span style=&quot;color:#cc7832;&quot;&gt;;&lt;br&gt;&lt;/span&gt;&lt;/div&gt;&lt;/div&gt;&lt;/div&gt;" style="rounded=1;whiteSpace=wrap;html=1;" vertex="1" parent="1">
          <mxGeometry x="170" y="2450" width="120" height="60" as="geometry" />
        </mxCell>
        <mxCell id="Nd9jvniVcSfhxIXPhPJu-118" value="" style="endArrow=none;html=1;rounded=1;entryX=0.5;entryY=0;entryDx=0;entryDy=0;exitX=0.5;exitY=1;exitDx=0;exitDy=0;" edge="1" parent="1" source="Nd9jvniVcSfhxIXPhPJu-117" target="Nd9jvniVcSfhxIXPhPJu-115">
          <mxGeometry width="50" height="50" relative="1" as="geometry">
            <mxPoint x="240" y="2460" as="sourcePoint" />
            <mxPoint x="310" y="2420" as="targetPoint" />
          </mxGeometry>
        </mxCell>
        <mxCell id="Nd9jvniVcSfhxIXPhPJu-119" value="" style="endArrow=none;html=1;rounded=1;entryX=1;entryY=0.5;entryDx=0;entryDy=0;" edge="1" parent="1">
          <mxGeometry width="50" height="50" relative="1" as="geometry">
            <mxPoint x="440" y="2490" as="sourcePoint" />
            <mxPoint x="360" y="2390" as="targetPoint" />
          </mxGeometry>
        </mxCell>
        <mxCell id="Nd9jvniVcSfhxIXPhPJu-120" value="" style="endArrow=none;html=1;rounded=1;entryX=1;entryY=0.5;entryDx=0;entryDy=0;" edge="1" parent="1">
          <mxGeometry width="50" height="50" relative="1" as="geometry">
            <mxPoint x="440" y="2490" as="sourcePoint" />
            <mxPoint x="360" y="2590" as="targetPoint" />
          </mxGeometry>
        </mxCell>
        <mxCell id="Nd9jvniVcSfhxIXPhPJu-121" value="" style="endArrow=none;html=1;rounded=1;entryX=0.5;entryY=1;entryDx=0;entryDy=0;exitX=0.5;exitY=0;exitDx=0;exitDy=0;" edge="1" parent="1" source="Nd9jvniVcSfhxIXPhPJu-122">
          <mxGeometry width="50" height="50" relative="1" as="geometry">
            <mxPoint x="360" y="2640" as="sourcePoint" />
            <mxPoint x="310" y="2620" as="targetPoint" />
          </mxGeometry>
        </mxCell>
        <mxCell id="Nd9jvniVcSfhxIXPhPJu-122" value="&lt;div style=&quot;background-color: rgb(43, 43, 43); color: rgb(169, 183, 198); font-family: &amp;quot;JetBrains Mono&amp;quot;, monospace;&quot;&gt;&lt;div style=&quot;&quot;&gt;&lt;div style=&quot;&quot;&gt;&lt;div style=&quot;&quot;&gt;P2res = &lt;span style=&quot;color:#6a8759;&quot;&gt;&quot;Forty&quot;&lt;/span&gt;&lt;span style=&quot;color:#cc7832;&quot;&gt;;&lt;br&gt;&lt;/span&gt;&lt;/div&gt;&lt;/div&gt;&lt;/div&gt;&lt;/div&gt;" style="rounded=1;whiteSpace=wrap;html=1;" vertex="1" parent="1">
          <mxGeometry x="180" y="2660" width="120" height="60" as="geometry" />
        </mxCell>
        <mxCell id="Nd9jvniVcSfhxIXPhPJu-123" value="" style="endArrow=none;html=1;rounded=1;entryX=0.5;entryY=0;entryDx=0;entryDy=0;exitX=0.5;exitY=1;exitDx=0;exitDy=0;" edge="1" parent="1" source="Nd9jvniVcSfhxIXPhPJu-122" target="Nd9jvniVcSfhxIXPhPJu-126">
          <mxGeometry width="50" height="50" relative="1" as="geometry">
            <mxPoint x="250" y="2670" as="sourcePoint" />
            <mxPoint x="310" y="2770" as="targetPoint" />
          </mxGeometry>
        </mxCell>
        <mxCell id="Nd9jvniVcSfhxIXPhPJu-124" value="" style="endArrow=none;html=1;rounded=1;entryX=1;entryY=0.5;entryDx=0;entryDy=0;" edge="1" parent="1" target="Nd9jvniVcSfhxIXPhPJu-115">
          <mxGeometry width="50" height="50" relative="1" as="geometry">
            <mxPoint x="450" y="2700" as="sourcePoint" />
            <mxPoint x="370" y="2600" as="targetPoint" />
          </mxGeometry>
        </mxCell>
        <mxCell id="Nd9jvniVcSfhxIXPhPJu-125" value="" style="endArrow=none;html=1;rounded=1;entryX=1;entryY=0.25;entryDx=0;entryDy=0;" edge="1" parent="1" target="Nd9jvniVcSfhxIXPhPJu-126">
          <mxGeometry width="50" height="50" relative="1" as="geometry">
            <mxPoint x="450" y="2700" as="sourcePoint" />
            <mxPoint x="370" y="2800" as="targetPoint" />
          </mxGeometry>
        </mxCell>
        <mxCell id="Nd9jvniVcSfhxIXPhPJu-126" value="&lt;div style=&quot;background-color: rgb(43, 43, 43); color: rgb(169, 183, 198); font-family: &amp;quot;JetBrains Mono&amp;quot;, monospace;&quot;&gt;&lt;div style=&quot;&quot;&gt;&lt;div style=&quot;&quot;&gt;P1res = &lt;span style=&quot;color:#6a8759;&quot;&gt;&quot;Love&quot;&lt;/span&gt;&lt;span style=&quot;color:#cc7832;&quot;&gt;;&lt;br&gt;&lt;/span&gt;score = &lt;span style=&quot;color:#9876aa;&quot;&gt;P1res &lt;/span&gt;+ &lt;span style=&quot;color:#6a8759;&quot;&gt;&quot;-&quot; &lt;/span&gt;+ &lt;span style=&quot;color:#9876aa;&quot;&gt;P2res&lt;/span&gt;&lt;span style=&quot;color:#cc7832;&quot;&gt;;&lt;/span&gt;&lt;/div&gt;&lt;/div&gt;&lt;/div&gt;" style="rounded=1;whiteSpace=wrap;html=1;" vertex="1" parent="1">
          <mxGeometry x="180" y="2770" width="120" height="60" as="geometry" />
        </mxCell>
        <mxCell id="Nd9jvniVcSfhxIXPhPJu-127" value="" style="endArrow=none;html=1;rounded=1;entryX=1;entryY=0.5;entryDx=0;entryDy=0;" edge="1" parent="1" target="Nd9jvniVcSfhxIXPhPJu-107">
          <mxGeometry width="50" height="50" relative="1" as="geometry">
            <mxPoint x="660" y="2520" as="sourcePoint" />
            <mxPoint x="370" y="2180" as="targetPoint" />
          </mxGeometry>
        </mxCell>
        <mxCell id="Nd9jvniVcSfhxIXPhPJu-128" value="" style="endArrow=none;html=1;rounded=1;entryX=0.5;entryY=1;entryDx=0;entryDy=0;exitX=0.5;exitY=0;exitDx=0;exitDy=0;" edge="1" parent="1" source="Nd9jvniVcSfhxIXPhPJu-108" target="Nd9jvniVcSfhxIXPhPJu-107">
          <mxGeometry width="50" height="50" relative="1" as="geometry">
            <mxPoint x="240" y="2240" as="sourcePoint" />
            <mxPoint x="310" y="2200" as="targetPoint" />
          </mxGeometry>
        </mxCell>
        <mxCell id="Nd9jvniVcSfhxIXPhPJu-129" value="" style="endArrow=none;html=1;rounded=1;entryX=1;entryY=0.25;entryDx=0;entryDy=0;" edge="1" parent="1" target="Nd9jvniVcSfhxIXPhPJu-107">
          <mxGeometry width="50" height="50" relative="1" as="geometry">
            <mxPoint x="660" y="1670" as="sourcePoint" />
            <mxPoint x="310" y="1945" as="targetPoint" />
          </mxGeometry>
        </mxCell>
        <mxCell id="Nd9jvniVcSfhxIXPhPJu-130" value="" style="endArrow=none;html=1;rounded=1;entryX=0.5;entryY=1;entryDx=0;entryDy=0;exitX=0.5;exitY=0;exitDx=0;exitDy=0;" edge="1" parent="1" source="Nd9jvniVcSfhxIXPhPJu-107" target="Nd9jvniVcSfhxIXPhPJu-104">
          <mxGeometry width="50" height="50" relative="1" as="geometry">
            <mxPoint x="460" y="1860" as="sourcePoint" />
            <mxPoint x="310" y="1945" as="targetPoint" />
          </mxGeometry>
        </mxCell>
        <mxCell id="Nd9jvniVcSfhxIXPhPJu-131" value="&lt;div style=&quot;background-color: rgb(43, 43, 43); color: rgb(169, 183, 198); font-family: &amp;quot;JetBrains Mono&amp;quot;, monospace;&quot;&gt;&lt;div style=&quot;&quot;&gt;&lt;div style=&quot;&quot;&gt;&lt;div style=&quot;&quot;&gt;if (&lt;span style=&quot;color:#9876aa;&quot;&gt;P1point&lt;/span&gt;&amp;gt;&lt;span style=&quot;color:#9876aa;&quot;&gt;P2point &lt;/span&gt;&amp;amp;&amp;amp; &lt;span style=&quot;color:#9876aa;&quot;&gt;P1point &lt;/span&gt;&amp;lt; &lt;span style=&quot;color:#6897bb;&quot;&gt;4&lt;/span&gt;)&lt;br&gt;&lt;/div&gt;&lt;/div&gt;&lt;/div&gt;&lt;/div&gt;" style="rounded=1;whiteSpace=wrap;html=1;" vertex="1" parent="1">
          <mxGeometry x="240" y="2880" width="120" height="60" as="geometry" />
        </mxCell>
        <mxCell id="Nd9jvniVcSfhxIXPhPJu-132" value="&lt;div style=&quot;background-color: rgb(43, 43, 43); color: rgb(169, 183, 198); font-family: &amp;quot;JetBrains Mono&amp;quot;, monospace;&quot;&gt;&lt;div style=&quot;&quot;&gt;&lt;div style=&quot;&quot;&gt;&lt;div style=&quot;&quot;&gt;if (&lt;span style=&quot;color:#9876aa;&quot;&gt;P1point&lt;/span&gt;==&lt;span style=&quot;color:#6897bb;&quot;&gt;2&lt;/span&gt;)&lt;br&gt;&lt;/div&gt;&lt;/div&gt;&lt;/div&gt;&lt;/div&gt;" style="rounded=1;whiteSpace=wrap;html=1;" vertex="1" parent="1">
          <mxGeometry x="240" y="2990" width="120" height="60" as="geometry" />
        </mxCell>
        <mxCell id="Nd9jvniVcSfhxIXPhPJu-133" value="&lt;div style=&quot;background-color: rgb(43, 43, 43); color: rgb(169, 183, 198); font-family: &amp;quot;JetBrains Mono&amp;quot;, monospace;&quot;&gt;&lt;div style=&quot;&quot;&gt;&lt;div style=&quot;&quot;&gt;&lt;div style=&quot;&quot;&gt;if (&lt;span style=&quot;color:#9876aa;&quot;&gt;P1point&lt;/span&gt;==&lt;span style=&quot;color:#6897bb;&quot;&gt;3&lt;/span&gt;)&lt;br&gt;&lt;/div&gt;&lt;/div&gt;&lt;/div&gt;&lt;/div&gt;" style="rounded=1;whiteSpace=wrap;html=1;" vertex="1" parent="1">
          <mxGeometry x="240" y="3210" width="120" height="60" as="geometry" />
        </mxCell>
        <mxCell id="Nd9jvniVcSfhxIXPhPJu-134" value="" style="endArrow=none;html=1;rounded=1;entryX=0.5;entryY=1;entryDx=0;entryDy=0;exitX=0.5;exitY=0;exitDx=0;exitDy=0;" edge="1" parent="1" source="Nd9jvniVcSfhxIXPhPJu-135" target="Nd9jvniVcSfhxIXPhPJu-132">
          <mxGeometry width="50" height="50" relative="1" as="geometry">
            <mxPoint x="350" y="3070" as="sourcePoint" />
            <mxPoint x="310" y="2960" as="targetPoint" />
          </mxGeometry>
        </mxCell>
        <mxCell id="Nd9jvniVcSfhxIXPhPJu-135" value="&lt;div style=&quot;background-color: rgb(43, 43, 43); color: rgb(169, 183, 198); font-family: &amp;quot;JetBrains Mono&amp;quot;, monospace;&quot;&gt;&lt;div style=&quot;&quot;&gt;&lt;div style=&quot;&quot;&gt;&lt;div style=&quot;&quot;&gt;P1res=&lt;span style=&quot;color:#6a8759;&quot;&gt;&quot;Thirty&quot;&lt;/span&gt;&lt;span style=&quot;color:#cc7832;&quot;&gt;;&lt;br&gt;&lt;/span&gt;&lt;/div&gt;&lt;/div&gt;&lt;/div&gt;&lt;/div&gt;" style="rounded=1;whiteSpace=wrap;html=1;" vertex="1" parent="1">
          <mxGeometry x="170" y="3090" width="120" height="60" as="geometry" />
        </mxCell>
        <mxCell id="Nd9jvniVcSfhxIXPhPJu-136" value="" style="endArrow=none;html=1;rounded=1;entryX=0.5;entryY=0;entryDx=0;entryDy=0;exitX=0.5;exitY=1;exitDx=0;exitDy=0;" edge="1" parent="1" source="Nd9jvniVcSfhxIXPhPJu-135" target="Nd9jvniVcSfhxIXPhPJu-133">
          <mxGeometry width="50" height="50" relative="1" as="geometry">
            <mxPoint x="240" y="3100" as="sourcePoint" />
            <mxPoint x="310" y="3060" as="targetPoint" />
          </mxGeometry>
        </mxCell>
        <mxCell id="Nd9jvniVcSfhxIXPhPJu-137" value="" style="endArrow=none;html=1;rounded=1;entryX=1;entryY=0.5;entryDx=0;entryDy=0;" edge="1" parent="1">
          <mxGeometry width="50" height="50" relative="1" as="geometry">
            <mxPoint x="440" y="3130" as="sourcePoint" />
            <mxPoint x="360" y="3030" as="targetPoint" />
          </mxGeometry>
        </mxCell>
        <mxCell id="Nd9jvniVcSfhxIXPhPJu-138" value="" style="endArrow=none;html=1;rounded=1;entryX=1;entryY=0.5;entryDx=0;entryDy=0;" edge="1" parent="1">
          <mxGeometry width="50" height="50" relative="1" as="geometry">
            <mxPoint x="440" y="3130" as="sourcePoint" />
            <mxPoint x="360" y="3230" as="targetPoint" />
          </mxGeometry>
        </mxCell>
        <mxCell id="Nd9jvniVcSfhxIXPhPJu-139" value="&lt;div style=&quot;background-color: rgb(43, 43, 43); font-family: &amp;quot;JetBrains Mono&amp;quot;, monospace;&quot;&gt;&lt;div style=&quot;color: rgb(169, 183, 198);&quot;&gt;&lt;div style=&quot;&quot;&gt;&lt;div style=&quot;&quot;&gt;if (&lt;span style=&quot;color:#9876aa;&quot;&gt;P2point&lt;/span&gt;==&lt;span style=&quot;color:#6897bb;&quot;&gt;1&lt;/span&gt;)&lt;br&gt;&lt;/div&gt;&lt;/div&gt;&lt;/div&gt;&lt;/div&gt;" style="rounded=1;whiteSpace=wrap;html=1;" vertex="1" parent="1">
          <mxGeometry x="240" y="3420" width="120" height="60" as="geometry" />
        </mxCell>
        <mxCell id="Nd9jvniVcSfhxIXPhPJu-140" value="" style="endArrow=none;html=1;rounded=1;entryX=0.5;entryY=1;entryDx=0;entryDy=0;exitX=0.5;exitY=0;exitDx=0;exitDy=0;" edge="1" parent="1" source="Nd9jvniVcSfhxIXPhPJu-141">
          <mxGeometry width="50" height="50" relative="1" as="geometry">
            <mxPoint x="350" y="3290" as="sourcePoint" />
            <mxPoint x="300" y="3270" as="targetPoint" />
          </mxGeometry>
        </mxCell>
        <mxCell id="Nd9jvniVcSfhxIXPhPJu-141" value="&lt;div style=&quot;background-color: rgb(43, 43, 43); color: rgb(169, 183, 198); font-family: &amp;quot;JetBrains Mono&amp;quot;, monospace;&quot;&gt;&lt;div style=&quot;&quot;&gt;&lt;div style=&quot;&quot;&gt;&lt;div style=&quot;&quot;&gt;P1res=&lt;span style=&quot;color:#6a8759;&quot;&gt;&quot;Forty&quot;&lt;/span&gt;&lt;span style=&quot;color:#cc7832;&quot;&gt;;&lt;br&gt;&lt;/span&gt;&lt;/div&gt;&lt;/div&gt;&lt;/div&gt;&lt;/div&gt;" style="rounded=1;whiteSpace=wrap;html=1;" vertex="1" parent="1">
          <mxGeometry x="170" y="3310" width="120" height="60" as="geometry" />
        </mxCell>
        <mxCell id="Nd9jvniVcSfhxIXPhPJu-142" value="" style="endArrow=none;html=1;rounded=1;entryX=0.5;entryY=0;entryDx=0;entryDy=0;exitX=0.5;exitY=1;exitDx=0;exitDy=0;" edge="1" parent="1" source="Nd9jvniVcSfhxIXPhPJu-141" target="Nd9jvniVcSfhxIXPhPJu-139">
          <mxGeometry width="50" height="50" relative="1" as="geometry">
            <mxPoint x="240" y="3320" as="sourcePoint" />
            <mxPoint x="310" y="3280" as="targetPoint" />
          </mxGeometry>
        </mxCell>
        <mxCell id="Nd9jvniVcSfhxIXPhPJu-143" value="" style="endArrow=none;html=1;rounded=1;entryX=1;entryY=0.5;entryDx=0;entryDy=0;" edge="1" parent="1">
          <mxGeometry width="50" height="50" relative="1" as="geometry">
            <mxPoint x="440" y="3350" as="sourcePoint" />
            <mxPoint x="360" y="3250" as="targetPoint" />
          </mxGeometry>
        </mxCell>
        <mxCell id="Nd9jvniVcSfhxIXPhPJu-144" value="" style="endArrow=none;html=1;rounded=1;entryX=1;entryY=0.5;entryDx=0;entryDy=0;" edge="1" parent="1">
          <mxGeometry width="50" height="50" relative="1" as="geometry">
            <mxPoint x="440" y="3350" as="sourcePoint" />
            <mxPoint x="360" y="3450" as="targetPoint" />
          </mxGeometry>
        </mxCell>
        <mxCell id="Nd9jvniVcSfhxIXPhPJu-145" value="" style="endArrow=none;html=1;rounded=1;entryX=0.5;entryY=1;entryDx=0;entryDy=0;exitX=0.5;exitY=0;exitDx=0;exitDy=0;" edge="1" parent="1" source="Nd9jvniVcSfhxIXPhPJu-146">
          <mxGeometry width="50" height="50" relative="1" as="geometry">
            <mxPoint x="360" y="3500" as="sourcePoint" />
            <mxPoint x="310" y="3480" as="targetPoint" />
          </mxGeometry>
        </mxCell>
        <mxCell id="Nd9jvniVcSfhxIXPhPJu-146" value="&lt;div style=&quot;background-color: rgb(43, 43, 43); color: rgb(169, 183, 198); font-family: &amp;quot;JetBrains Mono&amp;quot;, monospace;&quot;&gt;&lt;div style=&quot;&quot;&gt;&lt;div style=&quot;&quot;&gt;&lt;div style=&quot;&quot;&gt;&lt;div style=&quot;&quot;&gt;P2res=&lt;span style=&quot;color:#6a8759;&quot;&gt;&quot;Fifteen&quot;&lt;/span&gt;&lt;span style=&quot;color:#cc7832;&quot;&gt;;&lt;br&gt;&lt;/span&gt;&lt;/div&gt;&lt;/div&gt;&lt;/div&gt;&lt;/div&gt;&lt;/div&gt;" style="rounded=1;whiteSpace=wrap;html=1;" vertex="1" parent="1">
          <mxGeometry x="180" y="3520" width="120" height="60" as="geometry" />
        </mxCell>
        <mxCell id="Nd9jvniVcSfhxIXPhPJu-148" value="" style="endArrow=none;html=1;rounded=1;entryX=1;entryY=0.5;entryDx=0;entryDy=0;" edge="1" parent="1" target="Nd9jvniVcSfhxIXPhPJu-139">
          <mxGeometry width="50" height="50" relative="1" as="geometry">
            <mxPoint x="450" y="3560" as="sourcePoint" />
            <mxPoint x="370" y="3460" as="targetPoint" />
          </mxGeometry>
        </mxCell>
        <mxCell id="Nd9jvniVcSfhxIXPhPJu-151" value="" style="endArrow=none;html=1;rounded=1;entryX=1;entryY=0.5;entryDx=0;entryDy=0;" edge="1" parent="1" target="Nd9jvniVcSfhxIXPhPJu-131">
          <mxGeometry width="50" height="50" relative="1" as="geometry">
            <mxPoint x="660" y="3380" as="sourcePoint" />
            <mxPoint x="370" y="3040" as="targetPoint" />
          </mxGeometry>
        </mxCell>
        <mxCell id="Nd9jvniVcSfhxIXPhPJu-152" value="" style="endArrow=none;html=1;rounded=1;entryX=0.5;entryY=1;entryDx=0;entryDy=0;exitX=0.5;exitY=0;exitDx=0;exitDy=0;" edge="1" parent="1" source="Nd9jvniVcSfhxIXPhPJu-132" target="Nd9jvniVcSfhxIXPhPJu-131">
          <mxGeometry width="50" height="50" relative="1" as="geometry">
            <mxPoint x="240" y="3100" as="sourcePoint" />
            <mxPoint x="310" y="3060" as="targetPoint" />
          </mxGeometry>
        </mxCell>
        <mxCell id="Nd9jvniVcSfhxIXPhPJu-153" value="" style="endArrow=none;html=1;rounded=1;entryX=1;entryY=0.25;entryDx=0;entryDy=0;" edge="1" parent="1" target="Nd9jvniVcSfhxIXPhPJu-131">
          <mxGeometry width="50" height="50" relative="1" as="geometry">
            <mxPoint x="660" y="2520" as="sourcePoint" />
            <mxPoint x="310" y="2795" as="targetPoint" />
          </mxGeometry>
        </mxCell>
        <mxCell id="Nd9jvniVcSfhxIXPhPJu-154" value="" style="endArrow=none;html=1;rounded=1;entryX=0.5;entryY=1;entryDx=0;entryDy=0;exitX=0.5;exitY=0;exitDx=0;exitDy=0;" edge="1" parent="1" source="Nd9jvniVcSfhxIXPhPJu-131" target="Nd9jvniVcSfhxIXPhPJu-126">
          <mxGeometry width="50" height="50" relative="1" as="geometry">
            <mxPoint x="470" y="2720" as="sourcePoint" />
            <mxPoint x="320" y="2805" as="targetPoint" />
          </mxGeometry>
        </mxCell>
        <mxCell id="Nd9jvniVcSfhxIXPhPJu-159" value="&lt;div style=&quot;background-color: rgb(43, 43, 43); font-family: &amp;quot;JetBrains Mono&amp;quot;, monospace;&quot;&gt;&lt;div style=&quot;color: rgb(169, 183, 198);&quot;&gt;&lt;div style=&quot;&quot;&gt;&lt;div style=&quot;&quot;&gt;&lt;div style=&quot;&quot;&gt;if (&lt;span style=&quot;color:#9876aa;&quot;&gt;P2point&lt;/span&gt;==&lt;span style=&quot;color:#6897bb;&quot;&gt;2&lt;/span&gt;)&lt;br&gt;&lt;/div&gt;&lt;/div&gt;&lt;/div&gt;&lt;/div&gt;&lt;/div&gt;" style="rounded=1;whiteSpace=wrap;html=1;" vertex="1" parent="1">
          <mxGeometry x="240" y="3620" width="120" height="60" as="geometry" />
        </mxCell>
        <mxCell id="Nd9jvniVcSfhxIXPhPJu-160" value="" style="endArrow=none;html=1;rounded=1;entryX=0.5;entryY=1;entryDx=0;entryDy=0;exitX=0.5;exitY=0;exitDx=0;exitDy=0;" edge="1" parent="1" source="Nd9jvniVcSfhxIXPhPJu-161">
          <mxGeometry width="50" height="50" relative="1" as="geometry">
            <mxPoint x="360" y="3700" as="sourcePoint" />
            <mxPoint x="310" y="3680" as="targetPoint" />
          </mxGeometry>
        </mxCell>
        <mxCell id="Nd9jvniVcSfhxIXPhPJu-161" value="&lt;div style=&quot;background-color: rgb(43, 43, 43); color: rgb(169, 183, 198); font-family: &amp;quot;JetBrains Mono&amp;quot;, monospace;&quot;&gt;&lt;div style=&quot;&quot;&gt;&lt;div style=&quot;&quot;&gt;&lt;div style=&quot;&quot;&gt;&lt;div style=&quot;&quot;&gt;&lt;div style=&quot;&quot;&gt;P2res=&lt;span style=&quot;color:#6a8759;&quot;&gt;&quot;Thirty&quot;&lt;/span&gt;&lt;span style=&quot;color:#cc7832;&quot;&gt;;&lt;br&gt;&lt;/span&gt;&lt;/div&gt;&lt;/div&gt;&lt;/div&gt;&lt;/div&gt;&lt;/div&gt;&lt;/div&gt;" style="rounded=1;whiteSpace=wrap;html=1;" vertex="1" parent="1">
          <mxGeometry x="180" y="3720" width="120" height="60" as="geometry" />
        </mxCell>
        <mxCell id="Nd9jvniVcSfhxIXPhPJu-162" value="" style="endArrow=none;html=1;rounded=1;entryX=1;entryY=0.5;entryDx=0;entryDy=0;" edge="1" parent="1" target="Nd9jvniVcSfhxIXPhPJu-159">
          <mxGeometry width="50" height="50" relative="1" as="geometry">
            <mxPoint x="450" y="3760" as="sourcePoint" />
            <mxPoint x="370" y="3660" as="targetPoint" />
          </mxGeometry>
        </mxCell>
        <mxCell id="Nd9jvniVcSfhxIXPhPJu-163" value="" style="endArrow=none;html=1;rounded=1;exitX=1;exitY=0.25;exitDx=0;exitDy=0;" edge="1" parent="1" source="Nd9jvniVcSfhxIXPhPJu-159">
          <mxGeometry width="50" height="50" relative="1" as="geometry">
            <mxPoint x="460" y="3570" as="sourcePoint" />
            <mxPoint x="450" y="3560" as="targetPoint" />
          </mxGeometry>
        </mxCell>
        <mxCell id="Nd9jvniVcSfhxIXPhPJu-164" value="" style="endArrow=none;html=1;rounded=1;entryX=0.5;entryY=1;entryDx=0;entryDy=0;exitX=0.5;exitY=0;exitDx=0;exitDy=0;" edge="1" parent="1" source="Nd9jvniVcSfhxIXPhPJu-159" target="Nd9jvniVcSfhxIXPhPJu-146">
          <mxGeometry width="50" height="50" relative="1" as="geometry">
            <mxPoint x="250" y="3530" as="sourcePoint" />
            <mxPoint x="320" y="3490" as="targetPoint" />
          </mxGeometry>
        </mxCell>
        <mxCell id="Nd9jvniVcSfhxIXPhPJu-165" value="&lt;div style=&quot;background-color: rgb(43, 43, 43); color: rgb(169, 183, 198); font-family: &amp;quot;JetBrains Mono&amp;quot;, monospace;&quot;&gt;&lt;div style=&quot;&quot;&gt;&lt;div style=&quot;&quot;&gt;&lt;div style=&quot;&quot;&gt;&lt;div style=&quot;&quot;&gt;if (&lt;span style=&quot;color:#9876aa;&quot;&gt;P2point&lt;/span&gt;&amp;gt;&lt;span style=&quot;color:#9876aa;&quot;&gt;P1point &lt;/span&gt;&amp;amp;&amp;amp; &lt;span style=&quot;color:#9876aa;&quot;&gt;P2point &lt;/span&gt;&amp;lt; &lt;span style=&quot;color:#6897bb;&quot;&gt;4&lt;/span&gt;)&lt;br&gt;&lt;/div&gt;&lt;/div&gt;&lt;/div&gt;&lt;/div&gt;&lt;/div&gt;" style="rounded=1;whiteSpace=wrap;html=1;" vertex="1" parent="1">
          <mxGeometry x="250" y="3930" width="120" height="60" as="geometry" />
        </mxCell>
        <mxCell id="Nd9jvniVcSfhxIXPhPJu-166" value="&lt;div style=&quot;background-color: rgb(43, 43, 43); color: rgb(169, 183, 198); font-family: &amp;quot;JetBrains Mono&amp;quot;, monospace;&quot;&gt;&lt;div style=&quot;&quot;&gt;&lt;div style=&quot;&quot;&gt;&lt;div style=&quot;&quot;&gt;&lt;div style=&quot;&quot;&gt;&lt;div style=&quot;&quot;&gt;&lt;div style=&quot;&quot;&gt;score = P1res + &lt;span style=&quot;color:#6a8759;&quot;&gt;&quot;-&quot; &lt;/span&gt;+ &lt;span style=&quot;color:#9876aa;&quot;&gt;P2res&lt;/span&gt;&lt;span style=&quot;color:#cc7832;&quot;&gt;;&lt;br&gt;&lt;/span&gt;&lt;/div&gt;&lt;/div&gt;&lt;/div&gt;&lt;/div&gt;&lt;/div&gt;&lt;/div&gt;&lt;/div&gt;" style="rounded=1;whiteSpace=wrap;html=1;" vertex="1" parent="1">
          <mxGeometry x="180" y="3830" width="120" height="60" as="geometry" />
        </mxCell>
        <mxCell id="Nd9jvniVcSfhxIXPhPJu-167" value="" style="endArrow=none;html=1;rounded=1;entryX=1;entryY=0.5;entryDx=0;entryDy=0;exitX=1;exitY=0.5;exitDx=0;exitDy=0;" edge="1" parent="1" source="Nd9jvniVcSfhxIXPhPJu-166">
          <mxGeometry width="50" height="50" relative="1" as="geometry">
            <mxPoint x="540" y="3870" as="sourcePoint" />
            <mxPoint x="450" y="3760" as="targetPoint" />
          </mxGeometry>
        </mxCell>
        <mxCell id="Nd9jvniVcSfhxIXPhPJu-168" value="" style="endArrow=none;html=1;rounded=1;exitX=1;exitY=0.25;exitDx=0;exitDy=0;" edge="1" parent="1" source="Nd9jvniVcSfhxIXPhPJu-165">
          <mxGeometry width="50" height="50" relative="1" as="geometry">
            <mxPoint x="740" y="3770" as="sourcePoint" />
            <mxPoint x="660" y="3380" as="targetPoint" />
          </mxGeometry>
        </mxCell>
        <mxCell id="Nd9jvniVcSfhxIXPhPJu-169" value="" style="endArrow=none;html=1;rounded=1;entryX=0.5;entryY=1;entryDx=0;entryDy=0;exitX=0.5;exitY=0;exitDx=0;exitDy=0;" edge="1" parent="1" source="Nd9jvniVcSfhxIXPhPJu-166" target="Nd9jvniVcSfhxIXPhPJu-161">
          <mxGeometry width="50" height="50" relative="1" as="geometry">
            <mxPoint x="310" y="3630" as="sourcePoint" />
            <mxPoint x="250" y="3590" as="targetPoint" />
          </mxGeometry>
        </mxCell>
        <mxCell id="Nd9jvniVcSfhxIXPhPJu-170" value="" style="endArrow=none;html=1;rounded=1;entryX=0.5;entryY=1;entryDx=0;entryDy=0;exitX=0.5;exitY=0;exitDx=0;exitDy=0;" edge="1" parent="1" source="Nd9jvniVcSfhxIXPhPJu-165" target="Nd9jvniVcSfhxIXPhPJu-166">
          <mxGeometry width="50" height="50" relative="1" as="geometry">
            <mxPoint x="250" y="3840" as="sourcePoint" />
            <mxPoint x="250" y="3790" as="targetPoint" />
          </mxGeometry>
        </mxCell>
        <mxCell id="Nd9jvniVcSfhxIXPhPJu-171" value="&lt;div style=&quot;background-color: rgb(43, 43, 43); color: rgb(169, 183, 198); font-family: &amp;quot;JetBrains Mono&amp;quot;, monospace;&quot;&gt;&lt;div style=&quot;&quot;&gt;&lt;div style=&quot;&quot;&gt;&lt;div style=&quot;&quot;&gt;&lt;div style=&quot;&quot;&gt;if (&lt;span style=&quot;color:#9876aa;&quot;&gt;P2point&lt;/span&gt;==&lt;span style=&quot;color:#6897bb;&quot;&gt;2&lt;/span&gt;)&lt;br&gt;&lt;/div&gt;&lt;/div&gt;&lt;/div&gt;&lt;/div&gt;&lt;/div&gt;" style="rounded=1;whiteSpace=wrap;html=1;" vertex="1" parent="1">
          <mxGeometry x="250" y="4030" width="120" height="60" as="geometry" />
        </mxCell>
        <mxCell id="Nd9jvniVcSfhxIXPhPJu-172" value="&lt;div style=&quot;background-color: rgb(43, 43, 43); color: rgb(169, 183, 198); font-family: &amp;quot;JetBrains Mono&amp;quot;, monospace;&quot;&gt;&lt;div style=&quot;&quot;&gt;&lt;div style=&quot;&quot;&gt;&lt;div style=&quot;&quot;&gt;&lt;div style=&quot;&quot;&gt;if (&lt;span style=&quot;color:#9876aa;&quot;&gt;P2point&lt;/span&gt;==&lt;span style=&quot;color:#6897bb;&quot;&gt;3&lt;/span&gt;)&lt;br&gt;&lt;/div&gt;&lt;/div&gt;&lt;/div&gt;&lt;/div&gt;&lt;/div&gt;" style="rounded=1;whiteSpace=wrap;html=1;" vertex="1" parent="1">
          <mxGeometry x="250" y="4250" width="120" height="60" as="geometry" />
        </mxCell>
        <mxCell id="Nd9jvniVcSfhxIXPhPJu-173" value="" style="endArrow=none;html=1;rounded=1;entryX=0.5;entryY=1;entryDx=0;entryDy=0;exitX=0.5;exitY=0;exitDx=0;exitDy=0;" edge="1" parent="1" source="Nd9jvniVcSfhxIXPhPJu-174" target="Nd9jvniVcSfhxIXPhPJu-171">
          <mxGeometry width="50" height="50" relative="1" as="geometry">
            <mxPoint x="360" y="4110" as="sourcePoint" />
            <mxPoint x="320" y="4000" as="targetPoint" />
          </mxGeometry>
        </mxCell>
        <mxCell id="Nd9jvniVcSfhxIXPhPJu-174" value="&lt;div style=&quot;background-color: rgb(43, 43, 43); color: rgb(169, 183, 198); font-family: &amp;quot;JetBrains Mono&amp;quot;, monospace;&quot;&gt;&lt;div style=&quot;&quot;&gt;&lt;div style=&quot;&quot;&gt;&lt;div style=&quot;&quot;&gt;&lt;div style=&quot;&quot;&gt;P2res=&lt;span style=&quot;color:#6a8759;&quot;&gt;&quot;Thirty&quot;&lt;/span&gt;&lt;span style=&quot;color:#cc7832;&quot;&gt;;&lt;br&gt;&lt;/span&gt;&lt;/div&gt;&lt;/div&gt;&lt;/div&gt;&lt;/div&gt;&lt;/div&gt;" style="rounded=1;whiteSpace=wrap;html=1;" vertex="1" parent="1">
          <mxGeometry x="180" y="4130" width="120" height="60" as="geometry" />
        </mxCell>
        <mxCell id="Nd9jvniVcSfhxIXPhPJu-175" value="" style="endArrow=none;html=1;rounded=1;entryX=0.5;entryY=0;entryDx=0;entryDy=0;exitX=0.5;exitY=1;exitDx=0;exitDy=0;" edge="1" parent="1" source="Nd9jvniVcSfhxIXPhPJu-174" target="Nd9jvniVcSfhxIXPhPJu-172">
          <mxGeometry width="50" height="50" relative="1" as="geometry">
            <mxPoint x="250" y="4140" as="sourcePoint" />
            <mxPoint x="320" y="4100" as="targetPoint" />
          </mxGeometry>
        </mxCell>
        <mxCell id="Nd9jvniVcSfhxIXPhPJu-176" value="" style="endArrow=none;html=1;rounded=1;entryX=1;entryY=0.5;entryDx=0;entryDy=0;" edge="1" parent="1">
          <mxGeometry width="50" height="50" relative="1" as="geometry">
            <mxPoint x="450" y="4170" as="sourcePoint" />
            <mxPoint x="370" y="4070" as="targetPoint" />
          </mxGeometry>
        </mxCell>
        <mxCell id="Nd9jvniVcSfhxIXPhPJu-177" value="" style="endArrow=none;html=1;rounded=1;entryX=1;entryY=0.5;entryDx=0;entryDy=0;" edge="1" parent="1">
          <mxGeometry width="50" height="50" relative="1" as="geometry">
            <mxPoint x="450" y="4170" as="sourcePoint" />
            <mxPoint x="370" y="4270" as="targetPoint" />
          </mxGeometry>
        </mxCell>
        <mxCell id="Nd9jvniVcSfhxIXPhPJu-178" value="&lt;div style=&quot;background-color: rgb(43, 43, 43); font-family: &amp;quot;JetBrains Mono&amp;quot;, monospace;&quot;&gt;&lt;div style=&quot;color: rgb(169, 183, 198);&quot;&gt;&lt;div style=&quot;&quot;&gt;&lt;div style=&quot;&quot;&gt;&lt;div style=&quot;&quot;&gt;if (&lt;span style=&quot;color:#9876aa;&quot;&gt;P1point&lt;/span&gt;==&lt;span style=&quot;color:#6897bb;&quot;&gt;1&lt;/span&gt;)&lt;br&gt;&lt;/div&gt;&lt;/div&gt;&lt;/div&gt;&lt;/div&gt;&lt;/div&gt;" style="rounded=1;whiteSpace=wrap;html=1;" vertex="1" parent="1">
          <mxGeometry x="250" y="4460" width="120" height="60" as="geometry" />
        </mxCell>
        <mxCell id="Nd9jvniVcSfhxIXPhPJu-179" value="" style="endArrow=none;html=1;rounded=1;entryX=0.5;entryY=1;entryDx=0;entryDy=0;exitX=0.5;exitY=0;exitDx=0;exitDy=0;" edge="1" parent="1" source="Nd9jvniVcSfhxIXPhPJu-180">
          <mxGeometry width="50" height="50" relative="1" as="geometry">
            <mxPoint x="360" y="4330" as="sourcePoint" />
            <mxPoint x="310" y="4310" as="targetPoint" />
          </mxGeometry>
        </mxCell>
        <mxCell id="Nd9jvniVcSfhxIXPhPJu-180" value="&lt;div style=&quot;background-color: rgb(43, 43, 43); color: rgb(169, 183, 198); font-family: &amp;quot;JetBrains Mono&amp;quot;, monospace;&quot;&gt;&lt;div style=&quot;&quot;&gt;&lt;div style=&quot;&quot;&gt;&lt;div style=&quot;&quot;&gt;&lt;div style=&quot;&quot;&gt;P2res=&lt;span style=&quot;color:#6a8759;&quot;&gt;&quot;Forty&quot;&lt;/span&gt;&lt;span style=&quot;color:#cc7832;&quot;&gt;;&lt;br&gt;&lt;/span&gt;&lt;/div&gt;&lt;/div&gt;&lt;/div&gt;&lt;/div&gt;&lt;/div&gt;" style="rounded=1;whiteSpace=wrap;html=1;" vertex="1" parent="1">
          <mxGeometry x="180" y="4350" width="120" height="60" as="geometry" />
        </mxCell>
        <mxCell id="Nd9jvniVcSfhxIXPhPJu-181" value="" style="endArrow=none;html=1;rounded=1;entryX=0.5;entryY=0;entryDx=0;entryDy=0;exitX=0.5;exitY=1;exitDx=0;exitDy=0;" edge="1" parent="1" source="Nd9jvniVcSfhxIXPhPJu-180" target="Nd9jvniVcSfhxIXPhPJu-178">
          <mxGeometry width="50" height="50" relative="1" as="geometry">
            <mxPoint x="250" y="4360" as="sourcePoint" />
            <mxPoint x="320" y="4320" as="targetPoint" />
          </mxGeometry>
        </mxCell>
        <mxCell id="Nd9jvniVcSfhxIXPhPJu-182" value="" style="endArrow=none;html=1;rounded=1;entryX=1;entryY=0.5;entryDx=0;entryDy=0;" edge="1" parent="1">
          <mxGeometry width="50" height="50" relative="1" as="geometry">
            <mxPoint x="450" y="4390" as="sourcePoint" />
            <mxPoint x="370" y="4290" as="targetPoint" />
          </mxGeometry>
        </mxCell>
        <mxCell id="Nd9jvniVcSfhxIXPhPJu-183" value="" style="endArrow=none;html=1;rounded=1;entryX=1;entryY=0.5;entryDx=0;entryDy=0;" edge="1" parent="1">
          <mxGeometry width="50" height="50" relative="1" as="geometry">
            <mxPoint x="450" y="4390" as="sourcePoint" />
            <mxPoint x="370" y="4490" as="targetPoint" />
          </mxGeometry>
        </mxCell>
        <mxCell id="Nd9jvniVcSfhxIXPhPJu-184" value="" style="endArrow=none;html=1;rounded=1;entryX=0.5;entryY=1;entryDx=0;entryDy=0;exitX=0.5;exitY=0;exitDx=0;exitDy=0;" edge="1" parent="1" source="Nd9jvniVcSfhxIXPhPJu-185">
          <mxGeometry width="50" height="50" relative="1" as="geometry">
            <mxPoint x="370" y="4540" as="sourcePoint" />
            <mxPoint x="320" y="4520" as="targetPoint" />
          </mxGeometry>
        </mxCell>
        <mxCell id="Nd9jvniVcSfhxIXPhPJu-185" value="&lt;div style=&quot;background-color: rgb(43, 43, 43); color: rgb(169, 183, 198); font-family: &amp;quot;JetBrains Mono&amp;quot;, monospace;&quot;&gt;&lt;div style=&quot;&quot;&gt;&lt;div style=&quot;&quot;&gt;&lt;div style=&quot;&quot;&gt;&lt;div style=&quot;&quot;&gt;&lt;div style=&quot;&quot;&gt;P1res=&lt;span style=&quot;color:#6a8759;&quot;&gt;&quot;Fifteen&quot;&lt;/span&gt;&lt;span style=&quot;color:#cc7832;&quot;&gt;;&lt;br&gt;&lt;/span&gt;&lt;/div&gt;&lt;/div&gt;&lt;/div&gt;&lt;/div&gt;&lt;/div&gt;&lt;/div&gt;" style="rounded=1;whiteSpace=wrap;html=1;" vertex="1" parent="1">
          <mxGeometry x="190" y="4560" width="120" height="60" as="geometry" />
        </mxCell>
        <mxCell id="Nd9jvniVcSfhxIXPhPJu-186" value="" style="endArrow=none;html=1;rounded=1;entryX=1;entryY=0.5;entryDx=0;entryDy=0;" edge="1" parent="1" target="Nd9jvniVcSfhxIXPhPJu-178">
          <mxGeometry width="50" height="50" relative="1" as="geometry">
            <mxPoint x="460" y="4600" as="sourcePoint" />
            <mxPoint x="380" y="4500" as="targetPoint" />
          </mxGeometry>
        </mxCell>
        <mxCell id="Nd9jvniVcSfhxIXPhPJu-187" value="&lt;div style=&quot;background-color: rgb(43, 43, 43); font-family: &amp;quot;JetBrains Mono&amp;quot;, monospace;&quot;&gt;&lt;div style=&quot;color: rgb(169, 183, 198);&quot;&gt;&lt;div style=&quot;&quot;&gt;&lt;div style=&quot;&quot;&gt;&lt;div style=&quot;&quot;&gt;&lt;div style=&quot;&quot;&gt;if (&lt;span style=&quot;color:#9876aa;&quot;&gt;P1point&lt;/span&gt;==&lt;span style=&quot;color:#6897bb;&quot;&gt;2&lt;/span&gt;)&lt;br&gt;&lt;/div&gt;&lt;/div&gt;&lt;/div&gt;&lt;/div&gt;&lt;/div&gt;&lt;/div&gt;" style="rounded=1;whiteSpace=wrap;html=1;" vertex="1" parent="1">
          <mxGeometry x="250" y="4660" width="120" height="60" as="geometry" />
        </mxCell>
        <mxCell id="Nd9jvniVcSfhxIXPhPJu-188" value="" style="endArrow=none;html=1;rounded=1;entryX=0.5;entryY=1;entryDx=0;entryDy=0;exitX=0.5;exitY=0;exitDx=0;exitDy=0;" edge="1" parent="1" source="Nd9jvniVcSfhxIXPhPJu-189">
          <mxGeometry width="50" height="50" relative="1" as="geometry">
            <mxPoint x="370" y="4740" as="sourcePoint" />
            <mxPoint x="320" y="4720" as="targetPoint" />
          </mxGeometry>
        </mxCell>
        <mxCell id="Nd9jvniVcSfhxIXPhPJu-189" value="&lt;div style=&quot;background-color: rgb(43, 43, 43); color: rgb(169, 183, 198); font-family: &amp;quot;JetBrains Mono&amp;quot;, monospace;&quot;&gt;&lt;div style=&quot;&quot;&gt;&lt;div style=&quot;&quot;&gt;&lt;div style=&quot;&quot;&gt;&lt;div style=&quot;&quot;&gt;&lt;div style=&quot;&quot;&gt;&lt;div style=&quot;&quot;&gt;P1res=&lt;span style=&quot;color:#6a8759;&quot;&gt;&quot;Thirty&quot;&lt;/span&gt;&lt;span style=&quot;color:#cc7832;&quot;&gt;;&lt;br&gt;&lt;/span&gt;&lt;/div&gt;&lt;/div&gt;&lt;/div&gt;&lt;/div&gt;&lt;/div&gt;&lt;/div&gt;&lt;/div&gt;" style="rounded=1;whiteSpace=wrap;html=1;" vertex="1" parent="1">
          <mxGeometry x="190" y="4760" width="120" height="60" as="geometry" />
        </mxCell>
        <mxCell id="Nd9jvniVcSfhxIXPhPJu-190" value="" style="endArrow=none;html=1;rounded=1;entryX=1;entryY=0.5;entryDx=0;entryDy=0;" edge="1" parent="1" target="Nd9jvniVcSfhxIXPhPJu-187">
          <mxGeometry width="50" height="50" relative="1" as="geometry">
            <mxPoint x="460" y="4800" as="sourcePoint" />
            <mxPoint x="380" y="4700" as="targetPoint" />
          </mxGeometry>
        </mxCell>
        <mxCell id="Nd9jvniVcSfhxIXPhPJu-191" value="" style="endArrow=none;html=1;rounded=1;exitX=1;exitY=0.25;exitDx=0;exitDy=0;" edge="1" parent="1" source="Nd9jvniVcSfhxIXPhPJu-187">
          <mxGeometry width="50" height="50" relative="1" as="geometry">
            <mxPoint x="470" y="4610" as="sourcePoint" />
            <mxPoint x="460" y="4600" as="targetPoint" />
          </mxGeometry>
        </mxCell>
        <mxCell id="Nd9jvniVcSfhxIXPhPJu-192" value="" style="endArrow=none;html=1;rounded=1;entryX=0.5;entryY=1;entryDx=0;entryDy=0;exitX=0.5;exitY=0;exitDx=0;exitDy=0;" edge="1" parent="1" source="Nd9jvniVcSfhxIXPhPJu-187" target="Nd9jvniVcSfhxIXPhPJu-185">
          <mxGeometry width="50" height="50" relative="1" as="geometry">
            <mxPoint x="260" y="4570" as="sourcePoint" />
            <mxPoint x="330" y="4530" as="targetPoint" />
          </mxGeometry>
        </mxCell>
        <mxCell id="Nd9jvniVcSfhxIXPhPJu-193" value="&lt;div style=&quot;background-color: rgb(43, 43, 43); color: rgb(169, 183, 198); font-family: &amp;quot;JetBrains Mono&amp;quot;, monospace;&quot;&gt;&lt;div style=&quot;&quot;&gt;&lt;div style=&quot;&quot;&gt;&lt;div style=&quot;&quot;&gt;&lt;div style=&quot;&quot;&gt;&lt;div style=&quot;&quot;&gt;&lt;div style=&quot;&quot;&gt;&lt;div style=&quot;&quot;&gt;score = P1res + &lt;span style=&quot;color:#6a8759;&quot;&gt;&quot;-&quot; &lt;/span&gt;+ &lt;span style=&quot;color:#9876aa;&quot;&gt;P2res&lt;/span&gt;&lt;span style=&quot;color:#cc7832;&quot;&gt;;&lt;br&gt;&lt;/span&gt;&lt;/div&gt;&lt;/div&gt;&lt;/div&gt;&lt;/div&gt;&lt;/div&gt;&lt;/div&gt;&lt;/div&gt;&lt;/div&gt;" style="rounded=1;whiteSpace=wrap;html=1;" vertex="1" parent="1">
          <mxGeometry x="190" y="4870" width="120" height="60" as="geometry" />
        </mxCell>
        <mxCell id="Nd9jvniVcSfhxIXPhPJu-194" value="" style="endArrow=none;html=1;rounded=1;entryX=1;entryY=0.5;entryDx=0;entryDy=0;exitX=1;exitY=0.5;exitDx=0;exitDy=0;" edge="1" parent="1" source="Nd9jvniVcSfhxIXPhPJu-193">
          <mxGeometry width="50" height="50" relative="1" as="geometry">
            <mxPoint x="550" y="4910" as="sourcePoint" />
            <mxPoint x="460" y="4800" as="targetPoint" />
          </mxGeometry>
        </mxCell>
        <mxCell id="Nd9jvniVcSfhxIXPhPJu-195" value="" style="endArrow=none;html=1;rounded=1;entryX=0.5;entryY=1;entryDx=0;entryDy=0;exitX=0.5;exitY=0;exitDx=0;exitDy=0;" edge="1" parent="1" source="Nd9jvniVcSfhxIXPhPJu-193" target="Nd9jvniVcSfhxIXPhPJu-189">
          <mxGeometry width="50" height="50" relative="1" as="geometry">
            <mxPoint x="320" y="4670" as="sourcePoint" />
            <mxPoint x="260" y="4630" as="targetPoint" />
          </mxGeometry>
        </mxCell>
        <mxCell id="Nd9jvniVcSfhxIXPhPJu-196" value="" style="endArrow=none;html=1;rounded=1;entryX=0.5;entryY=1;entryDx=0;entryDy=0;exitX=0.5;exitY=0;exitDx=0;exitDy=0;" edge="1" parent="1" source="Nd9jvniVcSfhxIXPhPJu-171" target="Nd9jvniVcSfhxIXPhPJu-165">
          <mxGeometry width="50" height="50" relative="1" as="geometry">
            <mxPoint x="320" y="3940" as="sourcePoint" />
            <mxPoint x="250" y="3900" as="targetPoint" />
          </mxGeometry>
        </mxCell>
        <mxCell id="Nd9jvniVcSfhxIXPhPJu-197" value="&lt;div style=&quot;background-color: rgb(43, 43, 43); font-family: &amp;quot;JetBrains Mono&amp;quot;, monospace;&quot;&gt;&lt;div style=&quot;color: rgb(169, 183, 198);&quot;&gt;&lt;div style=&quot;&quot;&gt;&lt;div style=&quot;&quot;&gt;&lt;div style=&quot;&quot;&gt;&lt;div style=&quot;&quot;&gt;&lt;div style=&quot;&quot;&gt;if (&lt;span style=&quot;color:#9876aa;&quot;&gt;P1point &lt;/span&gt;&amp;gt; &lt;span style=&quot;color:#9876aa;&quot;&gt;P2point &lt;/span&gt;&amp;amp;&amp;amp; &lt;span style=&quot;color:#9876aa;&quot;&gt;P2point &lt;/span&gt;&amp;gt;= &lt;span style=&quot;color:#6897bb;&quot;&gt;3&lt;/span&gt;)&lt;br&gt;&lt;/div&gt;&lt;/div&gt;&lt;/div&gt;&lt;/div&gt;&lt;/div&gt;&lt;/div&gt;&lt;/div&gt;" style="rounded=1;whiteSpace=wrap;html=1;" vertex="1" parent="1">
          <mxGeometry x="250" y="4970" width="120" height="60" as="geometry" />
        </mxCell>
        <mxCell id="Nd9jvniVcSfhxIXPhPJu-198" value="" style="endArrow=none;html=1;rounded=1;entryX=0.5;entryY=1;entryDx=0;entryDy=0;exitX=0.5;exitY=0;exitDx=0;exitDy=0;" edge="1" parent="1" source="Nd9jvniVcSfhxIXPhPJu-197" target="Nd9jvniVcSfhxIXPhPJu-193">
          <mxGeometry width="50" height="50" relative="1" as="geometry">
            <mxPoint x="260" y="4880" as="sourcePoint" />
            <mxPoint x="260" y="4830" as="targetPoint" />
          </mxGeometry>
        </mxCell>
        <mxCell id="Nd9jvniVcSfhxIXPhPJu-199" value="" style="endArrow=none;html=1;rounded=1;entryX=1;entryY=0.5;entryDx=0;entryDy=0;" edge="1" parent="1" target="Nd9jvniVcSfhxIXPhPJu-165">
          <mxGeometry width="50" height="50" relative="1" as="geometry">
            <mxPoint x="660" y="4500" as="sourcePoint" />
            <mxPoint x="380" y="4080" as="targetPoint" />
          </mxGeometry>
        </mxCell>
        <mxCell id="Nd9jvniVcSfhxIXPhPJu-200" value="" style="endArrow=none;html=1;rounded=1;exitX=1;exitY=0.25;exitDx=0;exitDy=0;" edge="1" parent="1" source="Nd9jvniVcSfhxIXPhPJu-197">
          <mxGeometry width="50" height="50" relative="1" as="geometry">
            <mxPoint x="470" y="4610" as="sourcePoint" />
            <mxPoint x="660" y="4500" as="targetPoint" />
          </mxGeometry>
        </mxCell>
        <mxCell id="Nd9jvniVcSfhxIXPhPJu-201" value="&lt;div style=&quot;background-color: rgb(43, 43, 43); color: rgb(169, 183, 198); font-family: &amp;quot;JetBrains Mono&amp;quot;, monospace;&quot;&gt;&lt;div style=&quot;&quot;&gt;&lt;div style=&quot;&quot;&gt;&lt;div style=&quot;&quot;&gt;&lt;div style=&quot;&quot;&gt;&lt;div style=&quot;&quot;&gt;&lt;div style=&quot;&quot;&gt;&lt;div style=&quot;&quot;&gt;score = &quot;Advantage player1&quot;&lt;span style=&quot;color:#cc7832;&quot;&gt;;&lt;br&gt;&lt;/span&gt;&lt;/div&gt;&lt;/div&gt;&lt;/div&gt;&lt;/div&gt;&lt;/div&gt;&lt;/div&gt;&lt;/div&gt;&lt;/div&gt;" style="rounded=1;whiteSpace=wrap;html=1;" vertex="1" parent="1">
          <mxGeometry x="190" y="5070" width="120" height="60" as="geometry" />
        </mxCell>
        <mxCell id="Nd9jvniVcSfhxIXPhPJu-204" value="" style="endArrow=none;html=1;rounded=1;entryX=0.5;entryY=1;entryDx=0;entryDy=0;exitX=0.5;exitY=0;exitDx=0;exitDy=0;" edge="1" parent="1" source="Nd9jvniVcSfhxIXPhPJu-201" target="Nd9jvniVcSfhxIXPhPJu-197">
          <mxGeometry width="50" height="50" relative="1" as="geometry">
            <mxPoint x="320" y="4980" as="sourcePoint" />
            <mxPoint x="260" y="4940" as="targetPoint" />
          </mxGeometry>
        </mxCell>
        <mxCell id="Nd9jvniVcSfhxIXPhPJu-205" value="&lt;div style=&quot;background-color: rgb(43, 43, 43); font-family: &amp;quot;JetBrains Mono&amp;quot;, monospace;&quot;&gt;&lt;div style=&quot;color: rgb(169, 183, 198);&quot;&gt;&lt;div style=&quot;&quot;&gt;&lt;div style=&quot;&quot;&gt;&lt;div style=&quot;&quot;&gt;&lt;div style=&quot;&quot;&gt;&lt;div style=&quot;&quot;&gt;if (&lt;span style=&quot;color:#9876aa;&quot;&gt;P2point &lt;/span&gt;&amp;gt; &lt;span style=&quot;color:#9876aa;&quot;&gt;P1point &lt;/span&gt;&amp;amp;&amp;amp; &lt;span style=&quot;color:#9876aa;&quot;&gt;P1point &lt;/span&gt;&amp;gt;= &lt;span style=&quot;color:#6897bb;&quot;&gt;3&lt;/span&gt;)&lt;br&gt;&lt;/div&gt;&lt;/div&gt;&lt;/div&gt;&lt;/div&gt;&lt;/div&gt;&lt;/div&gt;&lt;/div&gt;" style="rounded=1;whiteSpace=wrap;html=1;" vertex="1" parent="1">
          <mxGeometry x="250" y="5170" width="120" height="60" as="geometry" />
        </mxCell>
        <mxCell id="Nd9jvniVcSfhxIXPhPJu-206" value="" style="endArrow=none;html=1;rounded=1;entryX=0.5;entryY=0;entryDx=0;entryDy=0;exitX=0.5;exitY=1;exitDx=0;exitDy=0;" edge="1" parent="1" source="Nd9jvniVcSfhxIXPhPJu-201" target="Nd9jvniVcSfhxIXPhPJu-205">
          <mxGeometry width="50" height="50" relative="1" as="geometry">
            <mxPoint x="270" y="5080" as="sourcePoint" />
            <mxPoint x="320" y="5040" as="targetPoint" />
          </mxGeometry>
        </mxCell>
        <mxCell id="Nd9jvniVcSfhxIXPhPJu-207" value="" style="endArrow=none;html=1;rounded=1;entryX=1;entryY=0.5;entryDx=0;entryDy=0;" edge="1" parent="1" target="Nd9jvniVcSfhxIXPhPJu-197">
          <mxGeometry width="50" height="50" relative="1" as="geometry">
            <mxPoint x="440" y="5100" as="sourcePoint" />
            <mxPoint x="330" y="5050" as="targetPoint" />
          </mxGeometry>
        </mxCell>
        <mxCell id="Nd9jvniVcSfhxIXPhPJu-208" value="" style="endArrow=none;html=1;rounded=1;exitX=1;exitY=0.25;exitDx=0;exitDy=0;" edge="1" parent="1" source="Nd9jvniVcSfhxIXPhPJu-205">
          <mxGeometry width="50" height="50" relative="1" as="geometry">
            <mxPoint x="290" y="5100" as="sourcePoint" />
            <mxPoint x="440" y="5100" as="targetPoint" />
          </mxGeometry>
        </mxCell>
        <mxCell id="Nd9jvniVcSfhxIXPhPJu-209" value="&lt;div style=&quot;background-color: rgb(43, 43, 43); color: rgb(169, 183, 198); font-family: &amp;quot;JetBrains Mono&amp;quot;, monospace;&quot;&gt;&lt;div style=&quot;&quot;&gt;&lt;div style=&quot;&quot;&gt;&lt;div style=&quot;&quot;&gt;&lt;div style=&quot;&quot;&gt;&lt;div style=&quot;&quot;&gt;&lt;div style=&quot;&quot;&gt;&lt;div style=&quot;&quot;&gt;&lt;div style=&quot;&quot;&gt;score = &quot;Advantage player2&quot;&lt;span style=&quot;color:#cc7832;&quot;&gt;;&lt;br&gt;&lt;/span&gt;&lt;/div&gt;&lt;/div&gt;&lt;/div&gt;&lt;/div&gt;&lt;/div&gt;&lt;/div&gt;&lt;/div&gt;&lt;/div&gt;&lt;/div&gt;" style="rounded=1;whiteSpace=wrap;html=1;" vertex="1" parent="1">
          <mxGeometry x="190" y="5270" width="120" height="60" as="geometry" />
        </mxCell>
        <mxCell id="Nd9jvniVcSfhxIXPhPJu-210" value="&lt;div style=&quot;background-color: rgb(43, 43, 43); font-family: &amp;quot;JetBrains Mono&amp;quot;, monospace;&quot;&gt;&lt;div style=&quot;color: rgb(169, 183, 198);&quot;&gt;&lt;div style=&quot;&quot;&gt;&lt;div style=&quot;&quot;&gt;&lt;div style=&quot;&quot;&gt;&lt;div style=&quot;&quot;&gt;&lt;div style=&quot;&quot;&gt;&lt;div style=&quot;&quot;&gt;if (&lt;span style=&quot;color:#9876aa;&quot;&gt;P1point&lt;/span&gt;&amp;gt;=&lt;span style=&quot;color:#6897bb;&quot;&gt;4 &lt;/span&gt;&amp;amp;&amp;amp; &lt;span style=&quot;color:#9876aa;&quot;&gt;P2point&lt;/span&gt;&amp;gt;=&lt;span style=&quot;color:#6897bb;&quot;&gt;0 &lt;/span&gt;&amp;amp;&amp;amp; (&lt;span style=&quot;color:#9876aa;&quot;&gt;P1point&lt;/span&gt;-&lt;span style=&quot;color:#9876aa;&quot;&gt;P2point&lt;/span&gt;)&amp;gt;=&lt;span style=&quot;color:#6897bb;&quot;&gt;2&lt;/span&gt;)&lt;br&gt;&lt;/div&gt;&lt;/div&gt;&lt;/div&gt;&lt;/div&gt;&lt;/div&gt;&lt;/div&gt;&lt;/div&gt;&lt;/div&gt;" style="rounded=1;whiteSpace=wrap;html=1;" vertex="1" parent="1">
          <mxGeometry x="250" y="5370" width="120" height="60" as="geometry" />
        </mxCell>
        <mxCell id="Nd9jvniVcSfhxIXPhPJu-211" value="" style="endArrow=none;html=1;rounded=1;entryX=0.5;entryY=0;entryDx=0;entryDy=0;exitX=0.5;exitY=1;exitDx=0;exitDy=0;" edge="1" parent="1" source="Nd9jvniVcSfhxIXPhPJu-209" target="Nd9jvniVcSfhxIXPhPJu-210">
          <mxGeometry width="50" height="50" relative="1" as="geometry">
            <mxPoint x="270" y="5280" as="sourcePoint" />
            <mxPoint x="320" y="5240" as="targetPoint" />
          </mxGeometry>
        </mxCell>
        <mxCell id="Nd9jvniVcSfhxIXPhPJu-212" value="" style="endArrow=none;html=1;rounded=1;entryX=0.5;entryY=1;entryDx=0;entryDy=0;exitX=0.5;exitY=0;exitDx=0;exitDy=0;" edge="1" parent="1" source="Nd9jvniVcSfhxIXPhPJu-209" target="Nd9jvniVcSfhxIXPhPJu-205">
          <mxGeometry width="50" height="50" relative="1" as="geometry">
            <mxPoint x="260" y="5080" as="sourcePoint" />
            <mxPoint x="320" y="5040" as="targetPoint" />
          </mxGeometry>
        </mxCell>
        <mxCell id="Nd9jvniVcSfhxIXPhPJu-213" value="" style="endArrow=none;html=1;rounded=1;entryX=1;entryY=0.5;entryDx=0;entryDy=0;" edge="1" parent="1" target="Nd9jvniVcSfhxIXPhPJu-205">
          <mxGeometry width="50" height="50" relative="1" as="geometry">
            <mxPoint x="440" y="5300" as="sourcePoint" />
            <mxPoint x="380" y="5010" as="targetPoint" />
          </mxGeometry>
        </mxCell>
        <mxCell id="Nd9jvniVcSfhxIXPhPJu-214" value="" style="endArrow=none;html=1;rounded=1;exitX=1;exitY=0.25;exitDx=0;exitDy=0;" edge="1" parent="1" source="Nd9jvniVcSfhxIXPhPJu-210">
          <mxGeometry width="50" height="50" relative="1" as="geometry">
            <mxPoint x="450" y="5310" as="sourcePoint" />
            <mxPoint x="440" y="5300" as="targetPoint" />
          </mxGeometry>
        </mxCell>
        <mxCell id="Nd9jvniVcSfhxIXPhPJu-215" value="&lt;div style=&quot;background-color: rgb(43, 43, 43); color: rgb(169, 183, 198); font-family: &amp;quot;JetBrains Mono&amp;quot;, monospace;&quot;&gt;&lt;div style=&quot;&quot;&gt;&lt;div style=&quot;&quot;&gt;&lt;div style=&quot;&quot;&gt;&lt;div style=&quot;&quot;&gt;&lt;div style=&quot;&quot;&gt;&lt;div style=&quot;&quot;&gt;&lt;div style=&quot;&quot;&gt;&lt;div style=&quot;&quot;&gt;&lt;div style=&quot;&quot;&gt;score = &quot;Win for player1&quot;&lt;span style=&quot;color:#cc7832;&quot;&gt;;&lt;br&gt;&lt;/span&gt;&lt;/div&gt;&lt;/div&gt;&lt;/div&gt;&lt;/div&gt;&lt;/div&gt;&lt;/div&gt;&lt;/div&gt;&lt;/div&gt;&lt;/div&gt;&lt;/div&gt;" style="rounded=1;whiteSpace=wrap;html=1;" vertex="1" parent="1">
          <mxGeometry x="190" y="5470" width="120" height="60" as="geometry" />
        </mxCell>
        <mxCell id="Nd9jvniVcSfhxIXPhPJu-216" value="&lt;div style=&quot;background-color: rgb(43, 43, 43); font-family: &amp;quot;JetBrains Mono&amp;quot;, monospace;&quot;&gt;&lt;div style=&quot;color: rgb(169, 183, 198);&quot;&gt;&lt;div style=&quot;&quot;&gt;&lt;div style=&quot;&quot;&gt;&lt;div style=&quot;&quot;&gt;&lt;div style=&quot;&quot;&gt;&lt;div style=&quot;&quot;&gt;&lt;div style=&quot;&quot;&gt;&lt;div style=&quot;&quot;&gt;if (&lt;span style=&quot;color:#9876aa;&quot;&gt;P2point&lt;/span&gt;&amp;gt;=&lt;span style=&quot;color:#6897bb;&quot;&gt;4 &lt;/span&gt;&amp;amp;&amp;amp; &lt;span style=&quot;color:#9876aa;&quot;&gt;P1point&lt;/span&gt;&amp;gt;=&lt;span style=&quot;color:#6897bb;&quot;&gt;0 &lt;/span&gt;&amp;amp;&amp;amp; (&lt;span style=&quot;color:#9876aa;&quot;&gt;P2point&lt;/span&gt;-&lt;span style=&quot;color:#9876aa;&quot;&gt;P1point&lt;/span&gt;)&amp;gt;=&lt;span style=&quot;color:#6897bb;&quot;&gt;2&lt;/span&gt;)&lt;br&gt;&lt;/div&gt;&lt;/div&gt;&lt;/div&gt;&lt;/div&gt;&lt;/div&gt;&lt;/div&gt;&lt;/div&gt;&lt;/div&gt;&lt;/div&gt;" style="rounded=1;whiteSpace=wrap;html=1;" vertex="1" parent="1">
          <mxGeometry x="250" y="5570" width="120" height="60" as="geometry" />
        </mxCell>
        <mxCell id="Nd9jvniVcSfhxIXPhPJu-217" value="&lt;div style=&quot;background-color: rgb(43, 43, 43); color: rgb(169, 183, 198); font-family: &amp;quot;JetBrains Mono&amp;quot;, monospace;&quot;&gt;&lt;div style=&quot;&quot;&gt;&lt;div style=&quot;&quot;&gt;&lt;div style=&quot;&quot;&gt;&lt;div style=&quot;&quot;&gt;&lt;div style=&quot;&quot;&gt;&lt;div style=&quot;&quot;&gt;&lt;div style=&quot;&quot;&gt;&lt;div style=&quot;&quot;&gt;&lt;div style=&quot;&quot;&gt;&lt;div style=&quot;&quot;&gt;score = &quot;Win for player2&quot;&lt;span style=&quot;color:#cc7832;&quot;&gt;;&lt;br&gt;&lt;/span&gt;&lt;/div&gt;&lt;/div&gt;&lt;/div&gt;&lt;/div&gt;&lt;/div&gt;&lt;/div&gt;&lt;/div&gt;&lt;/div&gt;&lt;/div&gt;&lt;/div&gt;&lt;/div&gt;" style="rounded=1;whiteSpace=wrap;html=1;" vertex="1" parent="1">
          <mxGeometry x="190" y="5670" width="120" height="60" as="geometry" />
        </mxCell>
        <mxCell id="Nd9jvniVcSfhxIXPhPJu-218" value="&lt;div style=&quot;background-color: rgb(43, 43, 43); color: rgb(169, 183, 198); font-family: &amp;quot;JetBrains Mono&amp;quot;, monospace;&quot;&gt;&lt;div style=&quot;&quot;&gt;&lt;div style=&quot;&quot;&gt;&lt;div style=&quot;&quot;&gt;&lt;div style=&quot;&quot;&gt;&lt;div style=&quot;&quot;&gt;&lt;div style=&quot;&quot;&gt;&lt;div style=&quot;&quot;&gt;&lt;div style=&quot;&quot;&gt;&lt;div style=&quot;&quot;&gt;&lt;div style=&quot;&quot;&gt;&lt;div style=&quot;&quot;&gt;return score&lt;span style=&quot;color:#cc7832;&quot;&gt;;&lt;br&gt;&lt;/span&gt;&lt;/div&gt;&lt;/div&gt;&lt;/div&gt;&lt;/div&gt;&lt;/div&gt;&lt;/div&gt;&lt;/div&gt;&lt;/div&gt;&lt;/div&gt;&lt;/div&gt;&lt;/div&gt;&lt;/div&gt;" style="rounded=1;whiteSpace=wrap;html=1;" vertex="1" parent="1">
          <mxGeometry x="190" y="5770" width="120" height="60" as="geometry" />
        </mxCell>
        <mxCell id="Nd9jvniVcSfhxIXPhPJu-219" value="" style="endArrow=none;html=1;rounded=1;entryX=0.5;entryY=0;entryDx=0;entryDy=0;exitX=0.5;exitY=1;exitDx=0;exitDy=0;" edge="1" parent="1" source="Nd9jvniVcSfhxIXPhPJu-210" target="Nd9jvniVcSfhxIXPhPJu-215">
          <mxGeometry width="50" height="50" relative="1" as="geometry">
            <mxPoint x="260" y="5340" as="sourcePoint" />
            <mxPoint x="320" y="5380" as="targetPoint" />
          </mxGeometry>
        </mxCell>
        <mxCell id="Nd9jvniVcSfhxIXPhPJu-220" value="" style="endArrow=none;html=1;rounded=1;entryX=0.5;entryY=1;entryDx=0;entryDy=0;exitX=0.5;exitY=0;exitDx=0;exitDy=0;" edge="1" parent="1" source="Nd9jvniVcSfhxIXPhPJu-216" target="Nd9jvniVcSfhxIXPhPJu-215">
          <mxGeometry width="50" height="50" relative="1" as="geometry">
            <mxPoint x="320" y="5440" as="sourcePoint" />
            <mxPoint x="260" y="5480" as="targetPoint" />
          </mxGeometry>
        </mxCell>
        <mxCell id="Nd9jvniVcSfhxIXPhPJu-221" value="" style="endArrow=none;html=1;rounded=1;entryX=0.5;entryY=1;entryDx=0;entryDy=0;exitX=0.5;exitY=0;exitDx=0;exitDy=0;" edge="1" parent="1" source="Nd9jvniVcSfhxIXPhPJu-217" target="Nd9jvniVcSfhxIXPhPJu-216">
          <mxGeometry width="50" height="50" relative="1" as="geometry">
            <mxPoint x="320" y="5580" as="sourcePoint" />
            <mxPoint x="260" y="5540" as="targetPoint" />
          </mxGeometry>
        </mxCell>
        <mxCell id="Nd9jvniVcSfhxIXPhPJu-222" value="" style="endArrow=none;html=1;rounded=1;entryX=0.5;entryY=0;entryDx=0;entryDy=0;exitX=0.5;exitY=1;exitDx=0;exitDy=0;" edge="1" parent="1" source="Nd9jvniVcSfhxIXPhPJu-217" target="Nd9jvniVcSfhxIXPhPJu-218">
          <mxGeometry width="50" height="50" relative="1" as="geometry">
            <mxPoint x="260" y="5680" as="sourcePoint" />
            <mxPoint x="320" y="5640" as="targetPoint" />
          </mxGeometry>
        </mxCell>
        <mxCell id="Nd9jvniVcSfhxIXPhPJu-223" value="" style="endArrow=none;html=1;rounded=1;exitX=1;exitY=0.5;exitDx=0;exitDy=0;" edge="1" parent="1" source="Nd9jvniVcSfhxIXPhPJu-210">
          <mxGeometry width="50" height="50" relative="1" as="geometry">
            <mxPoint x="380" y="5395" as="sourcePoint" />
            <mxPoint x="440" y="5500" as="targetPoint" />
          </mxGeometry>
        </mxCell>
        <mxCell id="Nd9jvniVcSfhxIXPhPJu-224" value="" style="endArrow=none;html=1;rounded=1;entryX=1;entryY=0.25;entryDx=0;entryDy=0;" edge="1" parent="1" target="Nd9jvniVcSfhxIXPhPJu-216">
          <mxGeometry width="50" height="50" relative="1" as="geometry">
            <mxPoint x="440" y="5500" as="sourcePoint" />
            <mxPoint x="460" y="5320" as="targetPoint" />
          </mxGeometry>
        </mxCell>
        <mxCell id="Nd9jvniVcSfhxIXPhPJu-225" value="" style="endArrow=none;html=1;rounded=1;exitX=1;exitY=0.5;exitDx=0;exitDy=0;" edge="1" parent="1" source="Nd9jvniVcSfhxIXPhPJu-216">
          <mxGeometry width="50" height="50" relative="1" as="geometry">
            <mxPoint x="450" y="5510" as="sourcePoint" />
            <mxPoint x="440" y="5700" as="targetPoint" />
          </mxGeometry>
        </mxCell>
        <mxCell id="Nd9jvniVcSfhxIXPhPJu-226" value="" style="endArrow=none;html=1;rounded=1;entryX=1;entryY=0.25;entryDx=0;entryDy=0;" edge="1" parent="1" target="Nd9jvniVcSfhxIXPhPJu-218">
          <mxGeometry width="50" height="50" relative="1" as="geometry">
            <mxPoint x="440" y="5700" as="sourcePoint" />
            <mxPoint x="450" y="5710" as="targetPoint" />
          </mxGeometry>
        </mxCell>
      </root>
    </mxGraphModel>
  </diagram>
</mxfile>
